<?xml version="1.0" encoding="UTF-8"?>
<svg id="Layer_1" xmlns="http://www.w3.org/2000/svg" version="1.1" viewBox="0 0 283.46 283.46">
  <g id="Q1mcXZ.tif">
    <path d="M267.94,197.63c1.6,1.6,3.07,3.32,4.63,4.95,1.76,1.84,4.31,2.04,1.64,5.23-19.57,18.88-38.2,38.73-57.88,57.5-.82.78-.52,1.44-2.15,1.83l-195.95.17c-1.22.06-2.23-.49-2.79-1.56l-.29-243.84c-.01-1.65.34-3.31,2.16-3.62l194.5-.17,3.25.73,60.54,60.66-.29,1.39-61,60.89c-.7.64-.76,1.67-.19,2.4,17.87,17.81,35.99,35.52,53.81,53.44ZM76.68,70.22v144.83l.54.54h114.33l7.96-7.6c.5-.87-.08-1.6-.6-2.29l-61.83-61.51c-.8-1.02-.08-2.15.74-2.92l61.53-61.45.38-1.11c0-1.51-1.33-1.59-2.03-2.35-1.37-1.51-5.44-6.28-7.22-6.52h-111.83s-1.97.38-1.97.38Z"/>
  </g>
</svg>
