<?xml version="1.0" encoding="UTF-8"?>
<svg id="Layer_1" xmlns="http://www.w3.org/2000/svg" version="1.1" viewBox="0 0 283.46 283.46">
  <g id="UdaPII.tif">
    <g>
      <path d="M135.88,6.81c111.86-5.21,182.82,120.19,118.89,212.94-53.53,77.67-168.03,78.8-222.88,1.95C-30.5,134.31,29.23,11.77,135.88,6.81ZM185.34,45.24c-3.14.13-6.23.83-9.35,1.12-18.05,1.63-39.15,1.37-57.21-.28-5.28-.48-10.58-1.17-15.77-2.23l-.28,15.07c5.7-.71,11.42-1.59,17.16-1.95,17.58-1.11,36.63-.71,54.1,1.43,3.7.45,7.36,1.21,11.06,1.64l.28-14.79ZM138.95,64.86c-19.68,1.75-32.7,23.77-27.99,42.34,6.88,27.13,43.13,33.87,59.42,11.14,17.15-23.93-2.76-56.03-31.43-53.48ZM130.08,198.73c-.98-1.38-2.57-2.2-3.77-3.34-13.59-12.9-1.34-23.06-3.52-37.23-1.3-8.49-8-15.09-14.34-20.26-.41.33-.45.35-.3.85.3,1.06,2.28,3.77,2.91,5.18,2.57,5.7,3.27,11.65.93,17.59-3.71,9.41-12.87,15.74-9.11,27.15,1.13,3.43,3.67,6.48,5.91,9.22l21.29.83ZM156.31,199.01c-1.16-1.2-2.7-2.07-3.91-3.2-14.32-13.43.67-25.78-4.46-41.03-1.75-5.21-8.04-12.81-12.55-15.91-.5-.34-1.63-.75-1.14.29.76,1.6,1.98,3.09,2.76,4.78,2.35,5.1,3.35,10.2,1.85,15.73-2.91,10.71-14.6,17.7-9.56,30.22.65,1.62,4.53,8.09,5.99,8.52l21.01.61ZM182.27,199.57c.43-.37-1.96-1.84-2.23-2.09-13.94-12.61-5.61-18.63-4.73-33.2.54-8.95-4.06-16.18-10.33-22.06-.51-.48-4.05-3.54-4.33-3.48-.24.05-.57.56-.31.85,3.94,6.04,6.62,12.55,4.83,19.85-2.67,10.84-14.56,18.03-9.9,30.43,1.18,3.14,3.62,6.48,5.99,8.8l21.01.89ZM183.38,209.9c-2.58,2.45-6.53,2.38-9.9,2.23-19.89-.91-45.38-11.19-64.9-6.84-2.09.47-7.98,2.43-8.35,4.77l-.57,10.73c.16.17,2.84-1.85,3.35-2.09,7.56-3.62,23.02-1.32,31.35-.09,11.93,1.76,31.02,6.84,42.43,5.22,2.07-.29,4.41-.95,5.89-2.48l.7-11.44ZM183.1,227.48c-2.61,2.54-6.75,2.41-10.18,2.23-19.88-1.05-44.74-11.04-64.33-6.84-2.05.44-6.81,1.98-8.1,3.62s-.28,9.55-1.11,11.87c1.54-.71,2.74-1.8,4.36-2.47,8.01-3.33,21.76-1.24,30.33,0,9.99,1.45,19.9,3.83,29.94,4.94,5.73.63,13.65,1.85,18.38-1.92l.7-11.44Z"/>
      <path d="M138.45,127.29c-11.9-1.92-20.67-10.27-23.36-21.99-1.94-8.45-.33-13.71,7.17-18.07,8.35-4.85,19.47-8.16,26.8-14.5,1.13-.98,2.19-1.88,1.81-3.49.99.43,2.06.66,3.02,1.16,6.46,3.35,15.9,15.49,18.06,22.41,3.72,11.94-6.84,16.22-15.45,20.85-3.85,2.07-17.09,7.67-18.46,11.41-.42,1.16.17,1.23.41,2.22Z"/>
    </g>
  </g>
</svg>
