<?xml version="1.0" encoding="UTF-8"?>
<svg id="Layer_1" xmlns="http://www.w3.org/2000/svg" version="1.1" viewBox="0 0 283.46 283.46">
  <g id="NZJ2ud.tif">
    <g>
      <path d="M15.14,10.74c1.38.52,2.42,1.59,3.65,2.27,15.69,8.65,32.25,15.84,48.1,24.48,4,2.18,6.28,2.38,6.17,7.29-.28,12.18.61,25.09,0,36.32.09,2.52-2.02,4.14-3.68,5.7-9.01,8.49-20.64,16.73-30.33,24.73-6.97,5.76-15.27,14.13-22.48,19.09-1.68,1.16-3.79,2.11-4.3-.59l.2-118.11,1.05-1.19h1.63Z"/>
      <path d="M207.48,40.18l56.82.09c1.4.46,1.51,1.97,1.62,3.27l-.29,72.74-.73,1.3-58.41,48.01-131.71.3c-2.2,1.39-1.76,3.59-1.72,5.68.5,23.23-.28,46.45-.28,69.62v3.89c-.56,1.45-5.18.91-7.26.9-15.09-.08-30.21-.12-45.3,0-2.55.02-6.28.56-7.75-2.57l.12-72.33c1.6-2.05,3.67-3.7,5.61-5.4,14.1-12.26,29.12-23.73,43.61-35.49,4.09-3.32,7.69-8.59,13.45-8.98,42.01.26,124.39,0,124.39,0,0,0,5.29.34,5.74-.4l.15-2.64c.74-23.4-.15-49.66-.42-73-.02-1.88.2-4.57,2.35-4.99Z"/>
      <path d="M265.39,274.87c-2.66,1.39-3.91-.85-5.92-1.83-8.66-4.24-17.35-8.79-25.92-13.23-8.45-4.37-18.86-8.65-26.74-13.62-1.45-.91-1.68-3.18-1.68-4.84,0-8.38,0-24.06,0-33.87,0-3.96,2.73-5.15,5.53-7.52,15.25-12.92,31.03-25.22,46.46-37.94,1.49-1.22,6.48-7.17,8.41-4.71l.39,115.45-.53,2.12Z"/>
    </g>
  </g>
</svg>
