<?xml version="1.0" encoding="UTF-8"?>
<svg id="Layer_1" xmlns="http://www.w3.org/2000/svg" version="1.1" viewBox="0 0 283.46 283.46">
  <g id="ZaEDgL.tif">
    <g>
      <path d="M25.99,144.66c1.51-12.63,18.38-16.94,25.07-5.84,2.44,4.06,1.23,8.34,2.97,12.3,3.71,8.45,14.94,13.84,23.79,14.39l117.16.02c17.07-1.08,26.86-13.23,27.75-29.81V23.5c1.13-16.71,24.63-17.69,26.7-.88l.02,113.4c-1.84,25.21-18.48,51.14-44.53,55.91-46.42.55-92.97.54-139.4,0-20.61-3.56-38.5-23.03-39.52-44.03-.05-.94-.11-2.34,0-3.23Z"/>
      <path d="M200.91,32.54c5.28-.61,9.28,2.27,10.32,7.43l.03,79.59c-1.92,17.47-14.55,35.83-33.34,36.85-29.18-1.03-59.31,1.38-88.38.02-15.76-.74-31.53-15.56-30.68-31.9.39-7.47,8.81-11.73,14.83-7.18,4.85,3.67,2.51,8.19,5.31,12.6,4.66,7.34,12.81,7.93,20.52,7.94,23.96.01,48.03.49,71.96.32,12.85-.09,20.28-7.12,21.57-19.85l.04-77.21c.25-4.32,3.46-8.12,7.82-8.62Z"/>
      <path d="M190.41,227.5v11.02c0,1.08-1.96,3.18-3.1,3.36-3.14.5-5.15-.72-5.43-3.94-.51-5.99-.36-15.67,0-21.76.38-6.53,3.44-11.45,10.42-11.9,15.62-1,32.83-.22,48.44.33,4.56,1.34,8.72,5.73,8.71,10.7-.01,3.84-4,6.33-7.08,3.54-1.85-1.68-.87-4.36-2.81-5.7-1.41-.98-2.8-.55-4.65-.64-13.5-.27-28.21-.64-41.42,0-1.17.06-2.3.4-3.07,1.33v4.7c1.04.98,2.65.17,3.95.13,14.75-.43,35.69-.72,47.57,9.13,1.72,1.42,6.83,6.84,7.36,8.8.97,3.64-1.9,6.09-5.45,5.16-1.74-.45-5.62-5.68-7.48-7.2-8.63-7.03-19.04-7.13-29.64-7.36-5.42-.12-10.93-.07-16.31.31Z"/>
      <path d="M30.86,210.06c3.11-3.76,5.88-5.46,10.83-5.76,16.37-1.01,33.81-.06,50.22-.02,5.81-.41,6.28,7.58.74,8.4-15.91-.27-32.17-1.06-47.74-.18-1.93.11-4.84.39-6.45,1.48-6.29,4.25-5.31,17.81,3.07,19.26l51.53.15c4.83,1.02,4.85,8.07-.26,8.51h-53.46c-13.71-3.26-16.81-21.76-8.46-31.84Z"/>
      <path d="M114.17,231.22c1.51,1.49,3.24,1.92,5.32,2.17l50.15.06c4.5.75,5.11,6.42,1.11,8.31h-55.52c-17.54-5.47-15.94-35.67,3.08-37.48,16.86-.18,33.99-1.16,50.23,0,1.6.11,3,.24,3.95,1.63,1.8,2.6.49,5.81-2.48,6.62-16.04-.26-32.87-.99-48.76-.03-3.9.24-6.87,1.05-8.8,4.71-2.19,4.14-1.7,10.63,1.72,14Z"/>
      <circle cx="102.62" cy="264.72" r="11.44"/>
      <circle cx="138.04" cy="264.72" r="11.44"/>
      <circle cx="173.18" cy="264.72" r="11.44"/>
    </g>
  </g>
</svg>
