<?xml version="1.0" encoding="UTF-8"?>
<svg id="Layer_1" xmlns="http://www.w3.org/2000/svg" version="1.1" viewBox="0 0 283.46 283.46">
  <!-- Generator: Adobe Illustrator 30.0.0, SVG Export Plug-In . SVG Version: 2.1.1 Build 123)  -->
  <g id="_x34_JEAwN">
    <g>
      <path d="M131.94,40.26c-16.01,14.37-20.32,34.82-6.03,52.2,20.35,24.75,68.71,56.26,71.99,88.74,3.25,32.19-22.7,64.5-56.36,61.16,11.18-7.64,16.16-21.25,14.28-34.68-2.71-19.46-53.87-59-68.24-76.89-22.24-27.69-12.87-67.55,17.58-84.32l19.58-6.21h7.2Z"/>
      <path d="M147.54,40.26c19.19,2.16,35.93,14.65,44.6,31.57,1.11,2.17,1.99,7.8,3.33,8.66,1.81,1.17,13.85.05,8.87,5.44-3.51,3.8-17.69,10.75-23.11,15-3.73,2.93-6.74,6.93-10.3,10.07-9.99-11.28-24.08-17.48-35.37-26.97,2.35-3.55,5.7-3.23,9.58-2.99v-40.79c.78.06,1.61-.09,2.39,0Z"/>
      <path d="M128.34,182.99v59.97c-25.36,1.79-51.56-20.06-55.05-45.11-.69-4.96,1.01-10.23-1.33-14.85,11.73,1.39,20.34,10,29.23,16.69,7.7-7.44,16.72-13.85,27.15-16.71Z"/>
    </g>
  </g>
</svg>