<?xml version="1.0" encoding="UTF-8"?>
<svg xmlns="http://www.w3.org/2000/svg" version="1.1" viewBox="5 125 275 48">
  <g>
    <path d="M58.38,158.08c2.11-2.16.54-5.87-2.39-6.22-12.24-.84-25.79,1.03-37.88-.01-13.52-1.17-14.33-21.4,1.17-22.5,13.4-.95,27.86.71,41.37-.01,5.84-.04,7,7.3,1.37,8.88l-43.39.29c-2.11.9-1.42,4.66.93,4.69l39.21.12c13.76,2.7,13.77,21.96.05,24.6l-48.3-.15c-3.83-1.7-3.87-6.83.13-8.37l44.49-.05c.98-.03,2.54-.57,3.22-1.26Z"/>
    <path d="M148.44,144.34h40.35c.08,0,1.21.51,1.4.62,2.53,1.52,2.64,5.36.33,7.17-.2.16-1.36.87-1.45.87h-40.64c-.17,2.78-.27,5.29,2.81,6.28l45.06.06c4.9.97,5.2,7.53.29,8.67l-47.41-.04c-4.37-.71-8.24-3.67-9.78-7.85-1.27-3.43-1.14-14.81-.82-18.81.48-6.06,4.98-11.07,11.14-11.68l47.6.15c4.01,1.73,3.59,7.12-.51,8.45l-45.33.08c-3.18.82-3.3,3.17-3.06,6.04Z"/>
    <path d="M204.36,160.3c.61-.61,2.58-1.46,3.47-1.88,7.16-3.43,14.82-5.95,21.88-9.61l-24.72-11.1c-4.52-3.91-.07-10.33,5.34-7.92l29.1,14.27,29.97-14.51c5.6-1.73,8.94,4.99,4.38,8.41l-24.39,10.86,24.72,11.11c4.41,3.85.07,10.28-5.34,7.92l-29.13-14.49-30.38,14.86c-4.63,1.39-8.17-4.65-4.9-7.91Z"/>
    <path d="M128.37,129.45c2.24-.09,4.31,1.44,4.94,3.58.93,3.16.67,18.47.38,22.43-.53,7.2-5.05,11.93-12.29,12.54-12.08-.67-25.05.86-37.03-.01-18.2-1.32-10.77-22.19-12.31-34.19.59-5.4,8.63-5.72,9.72-.43.89,7.34-.74,16.06.12,23.24.22,1.85,1.75,3.27,3.61,3.32,11.04-.83,23.59,1.05,34.45,0,1.89-.18,3.12-1.21,3.58-3.06l.15-23.5c.51-2.21,2.37-3.83,4.69-3.92Z"/>
  </g>
</svg>
