<?xml version="1.0" encoding="UTF-8"?>
<svg id="Layer_1" xmlns="http://www.w3.org/2000/svg" version="1.1" viewBox="0 0 283.46 283.46">
  <!-- Generator: Adobe Illustrator 30.0.0, SVG Export Plug-In . SVG Version: 2.1.1 Build 123)  -->
  <g id="aG0Xx1.tif">
    <g>
      <path d="M273.71,134.75v2.73c-.22.49-.07,1.09-.12,1.62-.83,9.19-7.88,16.1-16.62,18.21l-3.9.58c-1.08-.05-2.19.06-3.26,0-14.09-.82-23.81-12.07-20.59-26.29,5.37-23.69,43.22-21.86,44.49,3.16ZM250.42,121.42c-18.94,1.32-15.89,33.12,3.6,29.15,17.28-3.52,13.11-30.32-3.6-29.15Z"/>
      <path d="M32.9,157.88h-2.95c-5.87-.31-13.56-2.29-17.43-7.04-.34-.42-.56-.67-.05-1.1,1.66-1.4,4.24-2.51,5.96-3.93,1.03-.48,1.93,1.09,2.67,1.72,4.17,3.59,13.54,4.8,18.43,2.32,3.33-1.7,4.32-6.02.98-8.24s-10.42-2.23-14.37-3c-6.02-1.16-12.78-3.85-12.41-11.17.61-12.02,17.79-14.04,26.77-11.48,2.67.76,7.84,3.42,9.45,5.7.15.21.3.41.16.68l-6.21,4.3c-.58.01-1.86-1.6-2.37-2.04-3.96-3.4-10.96-4.27-15.57-1.77-1.97,1.06-3.02,2.36-2.74,4.71.33,2.77,4.16,3.38,6.39,3.82,7.64,1.51,21.89,1.66,22.35,12.28.43,10-10.7,13.69-18.9,14.16l-.17.1Z"/>
      <path d="M183.87,156.6c-.13.13-.66.22-.87.24-1.47.12-4.34.14-5.8,0-.32-.03-.62-.06-.84-.32l-19.68-26.93c-.14-.11-.5-.23-.49.05l-.14,26.57c-.16.33-.46.62-.85.63-2.16-.19-4.74.25-6.85,0-.42-.05-.83-.31-.79-.78l.06-39.39c.15-.51.55-.68,1.06-.73,1.39-.15,4.48-.13,5.9,0,.38.03.82.1,1.1.37,6.16,7.87,11.81,16.16,17.86,24.13.24.32,1.26,1.8,1.57,1.8.11,0,.2-.07.27-.15l.17-25.49c.1-.39.28-.64.72-.65,2.23.19,4.88-.25,7.06,0,.63.07.74.43.79,1v38.81c-.02.2-.11.74-.24.86Z"/>
      <path d="M103.89,116.27c.1-.11.49-.22.65-.24,1.61-.18,5.32-.15,6.96,0,.82.07.84.47.89,1.21v26.82c.72,6.9,9.95,8.06,14.98,5.29,3.29-1.81,3.89-3.75,4.08-7.39.42-8.25-.32-16.86,0-25.14-.03-.63.45-.84,1-.89,2.16-.21,4.65.17,6.85,0,.5.02.82.42.79.89-.25,8.29.32,16.77,0,25.04-.18,4.8-.49,7.57-4.11,10.93-4.19,3.89-12.4,5.54-17.94,4.77-6.87-.96-14.06-4.67-14.39-12.45v-27.98c.01-.22.1-.71.24-.86Z"/>
      <path d="M59.88,116.27c.1-.11.49-.22.65-.24,1.6-.18,5.33-.15,6.96,0,.82.07.79.49.89,1.21v26.82c.73,6.89,9.85,8.03,14.91,5.32,3.37-1.8,3.96-3.86,4.15-7.53.42-8.21-.32-16.79,0-25.04-.03-.63.45-.84,1-.89,2.16-.21,4.65.17,6.85,0,.5.02.82.42.79.89-.25,8.23.31,16.62,0,24.83-.2,5.33-.59,8.2-4.8,11.72-3.01,2.52-7.55,3.7-11.38,4.19-8.25,1.07-19.73-2.6-20.25-12.34v-28.08c.01-.22.1-.71.24-.86Z"/>
      <path d="M203.87,122.79c-.24-.21-.95-.33-1.28-.35-3.68-.3-7.82.32-11.49,0-.17-.01-.35-.02-.51-.1-.14-.09-.26-.71-.28-.9-.1-1.09-.13-3.56,0-4.63.05-.43.3-.73.71-.87l34.83-.03c.42,0,.87.15.97.61-.09,1.55.19,3.4.02,4.92-.07.63-.26.84-.89.9-3.61.33-7.73-.29-11.38,0-.65.05-1.35.11-1.64.78l-.09,32.61c-.04.43-.13.98-.63,1.05-2.31-.07-4.95.26-7.22.05-.22-.02-.58-.04-.66-.29v-32.48c-.05-.37-.19-1.03-.47-1.28Z"/>
      <polygon points="157.88 93.21 129.87 93.21 143.88 73.75 157.88 93.21"/>
    </g>
  </g>
</svg>