<?xml version="1.0" encoding="UTF-8"?>
<svg id="Layer_1" xmlns="http://www.w3.org/2000/svg" version="1.1" viewBox="0 0 283.46 283.46">
  <g id="_x34_mnkhC.tif">
    <g>
      <path d="M151.25,5.36c.32,3.64-.79,7.09-1.67,10.56-1.74,6.84-4,14.29-6.23,20.99-1.26,3.78-2.45,8.34-5.43,11.06h-11.96l-1.1-36.84c2.55.72,4.05,3.15,6.6,3.98s6.72.6,9.25-.63c4.1-1.99,6.68-6.47,10.26-9.12h.27Z"/>
      <path d="M138.82,49.16c15.12-1.12,30.64,4.91,44.13,11.23,8.63,4.04,17.89,8.86,25.99,13.87,1.85,1.15,3.28,3.12,5.59,2.52,1.78-.46,5.68-4.36,6.78-.62l-11.93,21.86c-.88-.04-1.83.11-2.69-.07-2.22-.46-8.77-7.43-11.07-9.27-14.64-11.72-45.33-19.08-61-6.05-8.01,6.66-9.07,20.93,1.31,25.61,4.64,2.09,15.2-.01,20.67-.32,10.13-.58,24.53,1.65,34.55,3.93,1.49.34,6.09,1.33,6.24,3.13l-.42.6c-18.61,14.7-37.4,29.33-53.97,46.37l-1.01.62c-2.42-.42-4.36-1.81-6.51-2.73-19.22-8.23-35.76-18.15-46.41-36.88-7.47-13.14-11.41-35.11-2.65-48.38,9.47-14.35,35.81-24.17,52.39-25.4ZM158.26,70.79c1.96.23,4.31-.17,6.32,0l.37-.64c-.58-1.56-1.64-2.66-2.84-3.77-5.2-4.78-12.41-6.6-19.29-7.38-2.35-.27-8.91-1.35-4.77,2.58,3.09,2.94,15.98,8.71,20.2,9.21Z"/>
      <path d="M202.29,116.49c3.14-.65,6.45.51,9.15,1.99,14.43,7.93,28.59,32.17,32.02,47.98,2.02,9.3,4.26,25.69,0,34.36-1.11,2.26-2.01,2.06-4.39,1.93-6.45-.35-13.3-2.42-19.79-3.02-4.46-.41-8.99-.28-13.46-.56-6.92-.43-13.82-1.25-20.77-1.22-5.13-4.14-8.96-9.57-13.45-14.32-5.82-6.16-11.99-11.49-19.16-16.02-.77-.48-5.43-2.94-5.54-3.26-.16-.47-.09-1.58.02-2.09.89-4.23,19.97-19.6,24.27-23.01,8.22-6.51,17.25-13.58,25.88-19.48,1.05-.72,4.26-3.09,5.23-3.29Z"/>
      <path d="M242.77,206.34c-3.21,6.35-8.26,11.77-10.24,18.76-.31,1.08-1.06,6.64-1.76,6.82-6.29-.41-12.07-3.73-18.17-5.15-4.49-1.04-9.33-1.32-13.89-2.05-3.92-.63-7.82-1.4-11.71-2.17-.6-.63,1.19-6.65,1.33-7.85.57-5.06-2.02-9.84-2.99-14.68,5.8.25,11.65.18,17.45.55,6.87.44,14.59,1.32,21.44,2.2,6.23.8,12.31,2.8,18.55,3.57Z"/>
      <path d="M128.16,183.79c-.87-1.16,8.07-10.51,9.34-11.68,2.53-2.32,5.17-5.17,8.87-4.47,2.63.5,10.56,5.76,13.1,7.52,4.83,3.36,17.67,15.03,19.08,20.51.58,2.24.05,2.24-1.74,2.83-6.21,2.07-14.24,4.32-20.61,5.78-1.05.24-3.88.9-4.75.63-6.76-6.44-13.14-14.54-20.83-19.85-.7-.48-1.62-1.05-2.45-1.27Z"/>
      <path d="M34.98,222.15c.19-1.39,1.7-4.22,2.43-5.55,1.78-3.24,4.17-6.15,6.09-9.3-.04-.6-4.59-1.77-5.35-1.78-.88-.02-1.48.53-2.62.15-.73-.24-1.15-1.14-.77-1.76s7-2.7,8.2-3.21c6.87-2.89,12.52-8.25,19.27-11.28,1.14.25,1.61,3.18,1.81,4.23.77,4.03.66,8.06.64,12.15,1.56-.11,2.24-2.55,2.61-3.85.86-3.04,1.01-6.48,1.24-9.62,2.66-.05,5.37.17,7.98.68.86.17,1.8.75,2.67.9,2.64.47,6.28.5,8.71,1.18.3.08.51.08.69.4-.61,1.38-1.31,2.67-2.08,3.97-2.65,4.43-11.92,16.34-17.04,17.05-2.38.33-4.78-.43-7.12-.25-2.89.23-5.01,1.79-7.14,3.58-2.84,2.38-4.97,5.08-6.89,8.24-3.05-.74-.86-9.78-1.23-10.17-5.01,1.02-7.53,6.88-12.09,8.8.14-1.43-.19-3.15,0-4.54Z"/>
      <path d="M223.26,247.03c-2.43.36-4.86,1.42-7.14,2.35-7.89,3.22-15.44,7.42-21.85,13.06-2.43,2.14-4.37,4.85-7.15,6.59-1.35-3.07-2.56-6.2-3.94-9.25-2.06-4.56-4.51-9.03-6.42-13.65-.46-1.11-1.67-3.66-1.59-4.69.14-1.94,5.54-7.31,6.97-9.27,1.18-1.61,2.05-3.17,3.05-4.88,4.64,1.79,9.2,3.82,13.82,5.67,5.19,2.08,9.89,3.65,14.92,6.25,3.25,1.68,8.85,3.92,9.34,7.84Z"/>
      <path d="M101.5,267.92c-.76-.68,8.16-13.59,9.12-14.93,2.33-3.25,5.1-7.17,7.78-10.09.7-.76,2.71-2.99,3.57-3.04.97-.06,3.25.66,4.32.93,3.17.8,7.03,2.78,10.04,3.15,1.72.21,3.85.13,5.56.07l-.73,4.9c-2.54,9.15-7.07,17.57-10.39,26.44-3.6-1.53-7.52-4.34-11.14-5.62-.93-.33-6.59-1.79-7.28-1.79h-10.86Z"/>
      <path d="M170.42,242.97c.22.26.32,1.3.35,1.71-.06,9.81-1.88,19.51-2.48,29.29l-15.5-.52c-5.37.92-10.01,4.48-15.56,4.37-.1-2.47.74-4.87,1.45-7.21,2.61-8.54,6.77-16.75,8.73-25.5,3.62-.24,7.54.28,11.12-.02,3.04-.25,5.93-1.61,8.87-2.12.68-.12,2.6-.5,3.02,0Z"/>
      <path d="M94.63,23.5c3.51.68,7.55.75,11.14.56,2.89-.15,4.31-.1,6.58-1.94,3.32-2.7,5.01-6.98,8.39-9.61l3.02,27.36c-.19,1.63.13,6.83-.53,7.99-1.68,2.93-11.45,4.59-14.73,4.55-3.42-5.95-7.37-11.24-10.26-17.53-.78-1.7-4.5-10.1-3.61-11.37Z"/>
      <path d="M90.17,63.7c.55.93-1.61,5.05-2.2,6.08-1.2,2.11-5.16,7.72-7.76,7.6-11.09-4.39-21.57-10.17-32.04-15.79,4.44-2.71,15.63-5.15,16.47-11.3.34-2.51-.45-4.36-.54-6.57-.02-.42-.23-1.42.41-1.24.83.24,3.13,2.01,3.97,2.63,6.66,4.92,12.71,10.53,18.71,16.2.43.4,2.86,2.21,2.97,2.39Z"/>
      <path d="M64.94,38.08c3.98.07,7.7,1.08,11.6-.08,4.65-1.39,8.87-5.52,11.26-9.63l1.46-3.76c3.87,4.88,6.25,10.69,9.16,16.13.92,1.72,7.5,12.65,7.06,13.58l-11.96,7.3c-2.7.81-8.96-4.54-11-6.34-1.45-1.28-2.69-2.83-4.12-4.13-4.61-4.2-9.56-8.19-13.47-13.05Z"/>
      <path d="M142.45,46.05c1.28-5.16,2.87-10.35,4.48-15.46,2.11-6.71,4.63-16.07,7.41-22.29.17-.38.27-.91.76-1.03.11,2.73,1.59,8.42,4.81,8.81,8.28,1,12.8-5.5,20.21-7.15l-21.1,34.01-2.4,3.1h-14.16Z"/>
      <path d="M93.36,256.21c-.48.37-.77,1.09-1.75.99-.99-4.34-3.28-8.5-6.18-11.83-.89-1.02-6.65-6.07-5.9-7.13l26.46-13.72,12.46,13.73c-.41,1.55-4.7,4.68-6.13,5.71-6.09,4.41-12.96,7.71-18.95,12.26Z"/>
      <path d="M76.46,92.76l-5.06.03-31.2-4.12c2.68-3.88,10.8-8.11,10.97-13.36.11-3.39-2.96-8.31-3.82-11.66.21-.17,4.42,1.68,5.05,1.96,6.16,2.79,13.81,6.67,19.7,9.99,1.69.95,6.81,4.07,7.48,5.71,1.31,3.21-2.45,8.36-3.12,11.45Z"/>
      <path d="M57.25,135.68c1.74-6.85-2.29-14.45-8.55-17.43-1-.47-2.32-.49-2.99-1.27,6.63-2.35,13.3-4.68,19.86-7.22,2.26-.88,4.31-2.2,6.66-2.97.97-.31,4.06-1.29,4.81-.96,1.85.83,5.44,10.79,5.71,13,.08.68.21,1.32-.07,1.99-.41.97-5.71,4.42-6.92,5.18-5.89,3.68-12.23,6.72-18.5,9.68Z"/>
      <path d="M76.76,100.9c-.32,1.57-3.4,3.26-4.76,4.03-1.49.85-3.37,1.76-4.95,2.48-2.7,1.22-21.73,8.5-23,7.37,1.05-4.39,3.41-9.19,2.07-13.75-1.22-4.12-5.95-5.91-8.11-9.34l28.18,2.74c3.33-.02,6.69-.44,10.02-.43.32,0,.36.02.56.3-.27,1.93.36,4.8,0,6.6Z"/>
      <path d="M105.07,179.94c-3.2-2.08-6.79-10.11-10.6-10.7-1-.16-7.24-.07-7.54-.3,5.22-8.07,11.85-15.32,18.55-22.19,1.62.69,3.27,1.4,4.82,2.25,1.79.99,7.28,4.35,7.14,6.58-3.9,8.22-9.22,15.79-12.37,24.35Z"/>
      <path d="M70.44,156.85c-.38-.27,4.37-6.09,4.81-6.6,3.37-3.91,8.37-8.93,12.53-11.93,1.21-.87,3.48-2.63,5-2.31s8.54,6.77,8.94,8.12c.15.51.08,1.01,0,1.52-.48,2.91-8.04,12.23-10.37,14.64-1.05,1.08-3.95,4-5.37,4-1.09,0-5.17-3.2-6.48-3.98-2.78-1.65-5.72-3.31-9.05-3.46Z"/>
      <path d="M93.44,207.48c1.15-.1,4.04,5.24,4.89,6.28,1.41,1.73,3.54,3.47,5.25,4.95.4.76-2.41,3.28-3.05,3.84-5.69,4.9-14.26,8.44-21.3,10.87-1.14-.49-2.69-5.73-3.33-7.11-.89-1.92-3.19-4.99-3.69-6.77-.36-1.29.76-1.79,1.71-2.43,5.82-3.92,13.38-6.15,19.52-9.63Z"/>
      <path d="M59.72,139.8l.28-.95c6.22-4.06,12.07-8.66,18.68-12.11,1.36-.71,4.34-2.38,5.72-2.56,1.21-.16,1.84,1.17,2.49,2.07,1.09,1.5,3.75,5.73,2.93,7.51-5.43,7.44-12.7,13.26-20.61,17.87-.64-.47-.33-1.29-.48-1.98-.98-4.35-4.28-9.17-9-9.83Z"/>
      <path d="M172.14,82.06c.7,5.63-6.6,7.29-10.78,8.6-8.78,2.75-18.61,5.26-26.84-.25.06-.96.38-1.83.84-2.66,3.24-5.85,17.92-8.05,24.01-7.62,4.16.29,8.52,1.91,12.77,1.93Z"/>
    </g>
  </g>
</svg>
