<?xml version="1.0" encoding="UTF-8"?>
<svg id="Layer_1" xmlns="http://www.w3.org/2000/svg" version="1.1" viewBox="0 0 283.46 283.46">
  <g id="k3vCbF">
    <g>
      <path d="M179.46,155.4l-30.59-62.35c.28-1.98,8.15-9.01,10.28-5.2l34.73,54.81.12-8.37,3.32-1.53c-.99-11.94,1.17-25.55.01-37.27-.41-4.15-2.87-4.34-3.4-7.64-.85-5.31-.74-24.12-.07-29.68,1.47-12.25,19.49-12.74,22.04-.77l.14,98.76c41.41,9.65,37.1,67.54-6.42,70.58-41.93-2.82-88.53,3.64-129.91-.05-33.53-2.99-45.7-44-19.1-64.25l.16-95.58c1.48-4.99,13.92-.02,17.09,2.09,3.78,2.52,11.6,11.93,11.6,16.41v49.66l32.63-76.47c3.4-2.57,11.85,6.2,14.04,9.01,7.94,10.21,7.98,21.07,4.05,32.87-6.1,18.31-16.8,36.4-22.7,54.97h61.97ZM53.2,196.35c1.73,11.86,13.16,22.1,24.91,23.47l133.22.12c34.24-3.69,36.17-51.08,2.42-57.66l-134.91-.12c-17.27,2.27-28.18,16.8-25.64,34.19ZM66.56,72.21v85.74l16.13-2.54-.41-70.49c-2.72-6.11-8.34-13.25-15.73-12.71ZM89.48,155.4h19.95l1.45-1.94c6.28-18.35,17.04-36.77,23.16-54.94,4.31-12.8,2.36-24.11-8.89-32.25l-35.66,89.13ZM162.49,106.16l24.17,48.4c1.69,1.51,4.25.69,6.37.83l-30.55-49.23ZM210.02,155.4V59.05c0-3.59-8.98-6.45-10.13.9-.6,3.81-.48,24.37.9,27.01.93,1.77,3.62,2.62,3.34,5.15-1.35,13.91,1.64,30.69,0,44.23-.51,4.2-3.56,2.95-4.16,3.9s-.27,14.34.84,15.03l9.22.12Z"/>
      <path d="M189.02,194.66c-4.18-29.46,38.39-34.16,42.87-8.07,5.17,30.14-38.99,35.43-42.87,8.07ZM195.79,194.68c.59,3.21,3.6,7.2,6.31,8.97,14.25,9.32,30.4-8.2,20.65-21.5-9.69-13.23-30.08-4.32-26.96,12.53Z"/>
      <path d="M59.12,195.52c-5.16-30.12,38.91-35.82,42.87-8.07,4.17,29.24-38.42,33.99-42.87,8.07ZM65.9,195.53c2.86,13.99,27.34,14.33,29.44-1.57,3.24-24.6-34.6-23.65-29.44,1.57Z"/>
      <path d="M111.13,207.18c-1.38-.43-1.61-3.19-1.15-4.53l3.75-2.2c20.49,1.3,43.47-1.93,63.65-.1,8.55.77,5,6.83,3.36,6.83h-69.61Z"/>
      <path d="M111.13,180.87c-2.08-.64-1.46-5.94,0-5.94h70.46c1.74,0,1.74,5.94,0,5.94h-70.46Z"/>
    </g>
  </g>
</svg>