<?xml version="1.0" encoding="UTF-8"?>
<svg id="Layer_1" xmlns="http://www.w3.org/2000/svg" version="1.1" viewBox="0 0 283.46 283.46">
  <g id="TFR7fb.tif">
    <g>
      <path d="M151.04,109.09c2.54,2.2,4.73,8.65,6.29,11.96,18.65,39.44,37.28,79.67,55.47,119.18,1.82,3.96,5.83,9.16,2.25,13.41-1.22,1.44-3.33,1.94-5.18,1.93-2.37-.01-3.35-.95-5.1-1.56-19.54-6.78-38.07-13.8-57.55-20.71-3,.41-5.6,2.05-8.4,3.04-11.7,4.13-23.18,8.08-34.98,12.36-5.45,1.98-10.92,4.59-16.57,6.34-1.69.52-5.19.67-6.81,0-.11-.04-1.64-1.53-1.71-1.63-.07-.1-1.02-2.02-1.1-2.22-1.21-3.19,2.09-7.61,3.4-10.52,18.42-40.89,37.7-81.46,56.74-121.83,1.22-2.59,2.63-7.1,4.41-9.18,1.51-1.76,3.86-2.15,6.14-1.92,1.62.16,1.7.49,2.71,1.36ZM146.01,130.97c-.86.29-.72,1.83-1.04,2.58-3.09,7.33-6.92,14.46-10.29,21.69-12.06,25.86-23.69,51.99-36.08,77.94-.44.92-1.35,1.16-1.29,2.9.09,2.53,1.88.78,2.58.5,5.57-2.19,11.12-3.85,16.73-5.89,8.9-3.25,17.86-6.97,26.79-10,.49-.17,3.51-1.09,3.72-1.07.2.01,3.02.89,3.5,1.05,5.32,1.74,10.65,4.21,15.9,6.11,8.95,3.25,18.37,6.09,27.13,9.66.81.33,1.09,1.51,2.49.83,1.65-.81-.59-3.62-.97-4.46-14.71-32.84-30.87-65.53-45.39-98.19-.19-.42-.67-.68-.8-1.01-.62-1.47-.05-3.64-2.98-2.65Z"/>
      <path d="M139.33,36.79c.82,1.46,1.87,2.75,2.82,4.12,5.38,7.79,10.57,15.64,15.98,23.53.62.9.32,2.43,2.3,1.32.96-1.67.14-3.32.12-4.97-.04-4.34.07-8.68.01-12.97-.05-3.67.07-7.36.01-11.03h14.77l-.14,52.81-13.89.31-.9-.3c-1.58-2.23-3.23-4.44-4.78-6.69-4.44-6.43-8.77-13.06-13.27-19.6-.9-1.31-1.03-3.39-3.51-2.56l-.3.91.29,27.73-.73.5h-12.67c-.25.04-.75-.31-.75-.46v-52.65h14.62Z"/>
    </g>
  </g>
</svg>