<?xml version="1.0" encoding="UTF-8"?>
<svg id="Layer_1" xmlns="http://www.w3.org/2000/svg" version="1.1" viewBox="0 0 283.46 283.46">
  <defs>
    <style>
      .st0 {
        stroke-width: 2px;
      }

      .st0, .st1 {
        fill: none;
        stroke: #231f20;
        stroke-miterlimit: 10;
      }

      .st1 {
        stroke-width: 3px;
      }
    </style>
  </defs>
  <rect class="st1" x="15.39" y="59.36" width="244.16" height="164.8" rx="44.96" ry="44.96"/>
  <rect class="st0" x="39.99" y="80.86" width="194.96" height="121.81" rx="30.08" ry="30.08"/>
  <rect class="st0" x="30.15" y="74.71" width="214.64" height="134.1" rx="39.78" ry="39.78"/>
  <circle class="st0" cx="64.2" cy="67.92" r="4.97"/>
  <circle class="st0" cx="137.21" cy="67.92" r="4.97"/>
  <circle class="st0" cx="209.7" cy="67.92" r="4.97"/>
  <circle class="st0" cx="64.2" cy="216.29" r="4.97"/>
  <circle class="st0" cx="137.21" cy="216.29" r="4.97"/>
  <circle class="st0" cx="209.7" cy="216.29" r="4.97"/>
  <circle class="st0" cx="251.83" cy="168.14" r="4.97"/>
  <circle class="st0" cx="251.83" cy="115.28" r="4.97"/>
  <circle class="st0" cx="23.11" cy="168.14" r="4.97"/>
  <circle class="st0" cx="23.11" cy="115.28" r="4.97"/>
  <rect class="st0" x="258.9" y="92.36" width="8.32" height="17.56" rx="3.68" ry="3.68"/>
  <rect class="st0" x="259.99" y="164.98" width="8.32" height="17.56" rx="3.68" ry="3.68"/>
  <line class="st0" x1="205.86" y1="89.86" x2="205.86" y2="190.39"/>
  <line class="st0" x1="207.35" y1="108.37" x2="212.06" y2="108.37"/>
  <line class="st0" x1="207.35" y1="125.03" x2="212.06" y2="125.03"/>
  <line class="st0" x1="207.35" y1="141.05" x2="212.06" y2="141.05"/>
  <line class="st0" x1="207.35" y1="157.08" x2="212.06" y2="157.08"/>
  <line class="st0" x1="207.35" y1="173.1" x2="212.06" y2="173.1"/>
  <line class="st0" x1="207.35" y1="189.12" x2="212.06" y2="189.12"/>
  <line class="st0" x1="207.35" y1="92.99" x2="212.06" y2="92.99"/>
  <line class="st0" x1="205.86" y1="89.86" x2="205.86" y2="190.39"/>
  <line class="st0" x1="207.35" y1="108.37" x2="212.06" y2="108.37"/>
  <line class="st0" x1="207.35" y1="125.03" x2="212.06" y2="125.03"/>
  <line class="st0" x1="207.35" y1="141.05" x2="212.06" y2="141.05"/>
  <line class="st0" x1="207.35" y1="157.08" x2="212.06" y2="157.08"/>
  <line class="st0" x1="207.35" y1="173.1" x2="212.06" y2="173.1"/>
  <line class="st0" x1="207.35" y1="189.12" x2="212.06" y2="189.12"/>
  <line class="st0" x1="207.35" y1="92.99" x2="212.06" y2="92.99"/>
  <line class="st0" x1="66.57" y1="89.86" x2="66.57" y2="190.39"/>
  <line class="st0" x1="65.08" y1="108.37" x2="60.37" y2="108.37"/>
  <line class="st0" x1="65.08" y1="125.03" x2="60.37" y2="125.03"/>
  <line class="st0" x1="65.08" y1="141.05" x2="60.37" y2="141.05"/>
  <line class="st0" x1="65.08" y1="157.08" x2="60.37" y2="157.08"/>
  <line class="st0" x1="65.08" y1="173.1" x2="60.37" y2="173.1"/>
  <line class="st0" x1="65.08" y1="189.12" x2="60.37" y2="189.12"/>
  <line class="st0" x1="65.08" y1="92.99" x2="60.37" y2="92.99"/>
</svg>