<?xml version="1.0" encoding="UTF-8"?>
<svg id="Layer_1" xmlns="http://www.w3.org/2000/svg" version="1.1" viewBox="0 0 283.46 283.46">
  <g id="AeCXUH.tif">
    <g>
      <path d="M191.99,183.99c-.29.33-2.31,1.96-2.36,2.17,1.4,6.59-.53,13.33-2.82,19.51-4.22,11.35-11.89,20.73-15.11,32.47-2.44,8.92-2.4,17.09-2.31,26.27.04,3.72.93,7.51-.37,11.27s-7.64,4.3-11.12,4.53c-8.86.58-21.8.56-30.68.02-2.12-.13-8.44-1.05-9.93-2.34-2.24-1.93-2.25-7.94-2.17-10.72.34-10.82,1.06-18.59-2-29.32-4.97-17.44-20.62-32.17-18-51.67-24.26-23.74-24.33-64.61.05-88.25-1.06-6.01.2-11.75,2.15-17.44,4.76-13.91,14.45-24.82,17.15-39.63,1.64-8.98.8-15.72.63-24.52-.07-3.73-.29-9.3,3.78-10.97,5.38-2.21,19.05-1.53,25.2-1.49s15.87-.53,21.39,1.33c5,1.69,4.31,7.92,4.24,12.36-.16,11.12-.85,19.37,2.53,30.29,4.52,14.6,18.2,29.68,18.03,45.53-.01,1.15-.86,3.3-.59,4.23.17.59,5.01,5.83,5.9,7.01,18.26,24.09,16.06,56.89-3.6,79.38ZM164.14,10.36c-.27-.43-6.5-1.23-7.46-1.28-8.39-.49-19.84-.46-28.24,0-2.39.13-5.34.45-7.53,1.37-.51.64-.3,10.3-.29,12.02.04,9.22,0,16.64-2.53,25.69-3.06,10.95-9.69,19.34-14.02,29.57-1.89,4.46-3.41,9.15-3.99,13.97,1.46.41,1.36-.42,2.08-.82,23.47-12.95,43.92-17.73,69.48-5.89,3.83,1.77,8.31,5.1,11.87,6.54.41.17.77.22,1.21.17-1.94-16.92-14.62-29.42-18.56-45.74-2.89-11.98-1.11-20.81-1.66-32.42-.05-1.07-.36-2.09-.36-3.17ZM139.62,84.04c-6.88.95-13.91,2.78-20.5,5.05-3.91,1.35-7.52,2.69-10.97,4.98-14.68,9.76-25.55,27.28-25.8,45.15l1.49.35v-.92s-.89-.02-.89-.02c1.09-15.24,8.03-29.21,19.44-39.29,6.77-5.98,12.79-8.32,21.32-10.89,5.05-1.52,10.21-2.65,15.33-3.84-.04.6-.05,1.64.92,1.54l-.34-2.11ZM202.47,139.22c-.04-14.3-7.37-28.86-17.58-38.65-5.84-5.59-11.33-8.8-18.94-11.44-6.69-2.31-13.76-4.11-20.78-5.13l-.31,1.83,1.08-1.24c9.74,2.66,22.09,4.53,30.61,10.2,14.03,9.34,24.63,26.3,25.38,43.41.03.57-.99.39-.64,1.36l1.18-.35ZM138.11,86.16c-6.27.91-12.34,2.86-18.33,4.83l-2.21,1c3.92-.88,7.71-2.25,11.59-3.29,2.72-.73,5.49-1.22,8.21-1.92.51-.13.9.31.75-.62ZM186.26,105.19c.13-.58-.33-.73-.61-1.07-6.57-7.94-15.88-11.81-25.46-14.74-2.96-.9-7.22-2.29-10.19-2.72-.51-.07-.75-.34-1.16.27,10.34,2.88,21.24,4.78,29.9,11.51,2.31,1.8,4.44,4.05,6.43,6.15.32.33.54.71,1.08.61ZM145.17,87.08c-.62-.12-.73.28-.94.74-.71,1.59-1.1,4.25-1.51,6.01-.5-.05-.46-.47-.57-.8-.55-1.54-.83-3.23-1.36-4.79-.12-.35-.08-1.07-.66-.86-.69.26-.23.68-.15,1.05.19.96,1.86,5.66,1.53,6.01-25.36-.06-48.17,21.25-48.15,46.98l-8.28-2.15c-.11.69.28.72.79.9,2.19.77,4.64,1.11,6.88,1.71l-6.9,2-.77.91,8.28-2.15c-.02,25.66,22.84,47.16,48.15,46.97l-1.84,7.67c.62.12.73-.28.94-.74.71-1.6,1.31-4.57,1.51-6.32.83-.11.47.06.62.45.34.93,1.37,6.26,1.99,6.3.74-.5.31-.63.21-1.12-.41-1.98-1.16-3.95-1.59-5.93,5.06-.37,9.87-1.02,14.71-2.63,18.95-6.3,33.6-24.26,33.44-44.66l8.58,2.45-.18-.95-7.8-1.82c-.07-.81-.02-.5.46-.61,2.12-.49,4.94-.91,6.9-1.71.49-.2.75.03.61-.75l-8.28,2.15c-.37-2.79-.45-5.55-1.01-8.36-2.33-11.8-9.22-21.73-18.66-28.91-8.05-6.12-18.63-9.85-28.8-9.71l1.84-7.37ZM199.74,138.02c-2.74-15.25-9.61-29.51-22.26-38.92-9.05-6.73-18.24-7.83-28.69-10.89-.75-.22-1.4-1.27-2.41-.7l-1.5,5.69c2.76.47,5.6.48,8.35,1.01,21.16,4.13,38.91,23.5,39.32,45.38.27.41.44.12.7.09,2.04-.22,4.36-1.48,6.49-1.66ZM138.7,88.03c-.63-.55-7.6,1.33-8.87,1.65-7.09,1.83-14.8,4.15-20.82,8.33-13.08,9.08-21.91,24.12-23.22,40.05l6.62,1.83c.18-25.14,23.03-46.47,47.85-46.36l-1.56-5.49ZM115.42,92.91c-2.63.18-5.04,1.98-7.15,3.43-6.43,4.43-11.85,10.22-15.98,16.85-1.24,2-2.81,4.45-3.24,6.73l5.39-9.19c4.54-6.32,10.17-11.65,16.79-15.73l4.19-2.09ZM200.06,134.05c-.51-7.39-3.95-15.2-7.84-21.47-1.22-1.97-2.59-4.1-4.42-5.55l4.42,6.47c2.61,4.24,4.49,8.88,6.01,13.63l1.83,6.91ZM84.75,137.12c.38-4.95,1.98-9.63,3.07-14.43-.45.18-.65,1.3-.82,1.78-1.39,3.98-2.3,8.02-2.83,12.21-.08.61.07.44.59.43ZM92.42,144.19l-7.05,1.84c1.52,8.62,3.87,16.42,8.46,23.92,5.32,8.69,13.61,16.67,23.2,20.37,4.84,1.87,10.74,2.83,15.26,4.68,1.53.62,4.04,3.21,5.83,2.15.33-.2,2.06-6.01,1.82-6.28-11.99-.71-23.39-5.2-32.19-13.37-9.21-8.54-15.26-20.59-15.33-33.32ZM146.09,196.38c8.07-1.8,17.52-3.8,25-7.37,11.44-5.46,21.19-18.45,25.3-30.24l3.55-12.45c-.2-.28-5.85-1.87-6.61-2.01-1.52-.29-.83,3.09-.97,4.29-1.96,16.89-14.59,31.98-30.03,38.41-5.63,2.34-11.4,3.35-17.46,3.86l1.22,5.51ZM83.83,144.49l-1.54.51c.52,16.91,9.92,33.25,23.35,43.21,5.52,4.1,11.98,6.51,18.56,8.44,1.8.53,14.83,3.9,15.42,3.38l.34-1.5c-.71-.01-.85.6-1.67.63-2.46.07-11.08-2.47-13.9-3.31-5.96-1.78-12.07-3.83-17.16-7.38-14.11-9.84-22.94-25.72-24.33-42.9l.93-.16v-.92ZM202.47,144.85l-.86-.36c.35,2.28,0,5.1-.39,7.44-2.41,14.47-11.83,28.41-23.74,36.72-6.17,4.31-16.86,7.48-24.25,9.19-1.52.35-5.71,1.41-6.97,1.34-.79-.04-.47-1.13-1.38-.95l.32,1.82c.5.49,11.97-2.4,13.54-2.83,19.18-5.29,33.56-16.42,40.56-35.54,1.91-5.22,3.41-11.26,3.18-16.82ZM85.06,149.1c-.95-.22-.64.69-.53,1.3,2.17,12.84,9.65,26.06,19.71,34.31,3.4,2.79,7.5,5.69,11.8,6.76l-5-2.51c-13.95-8.77-23.88-23.36-25.97-39.86ZM195.16,166.29c2.2-5.06,4.67-10.35,4.91-15.96l-2.98,10.06c-.44,1.68-1.6,3.38-2.1,4.96-.09.28-.38,1.02.17.94ZM188.42,176.42c1.62-1.5,3.36-3.73,3.98-5.83-1.39,1.8-3.21,3.68-3.98,5.83ZM172.46,189.93c.56.09.92-.06,1.4-.28,2.77-1.27,9.47-7.14,11.64-9.54l2.29-3.07c-2.74,2.34-5.02,5.41-7.82,7.68-2.26,1.83-5.24,3.36-7.51,5.22ZM169.7,191.16c-7,2.32-14.07,4.18-21.23,5.92-.31.07-.92.09-.85.52,7.05-1.06,14.18-3.13,20.84-5.69.36-.14,1.23-.31,1.24-.75ZM131.68,196.38c-.49-.64-1.9-.91-2.7-1.14-4.1-1.19-8.18-2.53-12.33-3.46l13.41,4.53,1.61.07ZM185.04,192.39c-.54-.06-.99-.02-1.51.17-2.96,1.07-7.79,4.57-11.05,6.13-16.21,7.74-33.29,9.19-50.46,3.84-6.42-2-12.59-5.3-18.45-8.55-.8-.44-1.65-1.26-2.38-1.61-.39-.19-.51-.55-.95.02.27,4.4,1.74,8.83,3.39,12.89,2.89,7.14,7.25,13.37,10.48,20.22,5.04,10.68,6.9,21.89,6.86,33.69-.02,4.33-.91,9.18-.34,13.51.22,1.63,2.48,1.76,3.88,1.94,8.08,1.04,27.84,1.18,35.81,0,2.59-.38,3.92-.36,4.18-3.18.58-6.24-.71-14.21-.32-20.89.94-15.93,6.54-23.95,13.34-37.3,3.38-6.64,6.12-13.53,7.51-20.88Z"/>
      <path d="M111.87,178.45c-25.96-20.3-22.78-60.19,5.55-76.64,27.72-16.1,65.71-1.61,72.33,30.46,9.17,44.45-43.16,73.33-77.87,46.18ZM137.13,100.67c-28.86,2.72-47.42,35.66-32.38,61.42,16.9,28.94,59.65,28.69,75.81-.75,16.91-30.8-10.09-63.81-43.42-60.67Z"/>
      <path d="M144.46,108.67c1.2,1.32.77,3.6-.9,4.28-1.25.51-4.55.32-6.18.57-20.52,3.16-32.05,27.06-19.76,44.59,14.68,20.93,48.75,14.84,54.15-10.16.3-1.37.63-7.13.98-7.61,1.55-2.15,4.91-.85,4.93,2.17.18,31.68-41.68,45.28-62.25,21.48-18.21-21.08-3.72-54.24,23.75-56.04,1.36-.09,4.38-.27,5.28.72Z"/>
    </g>
  </g>
</svg>