<?xml version="1.0" encoding="UTF-8"?>
<svg id="Layer_1" xmlns="http://www.w3.org/2000/svg" version="1.1" viewBox="0 0 283.46 283.46">
  <!-- Generator: Adobe Illustrator 30.0.0, SVG Export Plug-In . SVG Version: 2.1.1 Build 123)  -->
  <defs>
    <style>
      .st0 {
        fill: #231f20;
      }
    </style>
  </defs>
  <g id="Nr8kOR">
    <g>
      <path class="st0" d="M159.85,163.06l12.91,52.78c2.12,26.13-27.74,43.27-49.43,28.86-25.64-17.02-9.12-47.17-2.34-69.82,1.26-4.22,2.47-8.52,3.52-12.8-3.42-3.25-5.3-7.5-7.05-11.79l-50.01-10.74c-46.17-17.74-13.18-82.89,28.34-56.17l38.02,35.63c5.31-1.27,10.83-1.75,16.15-.26l33.94-35.01c39.04-35,81.54,31.57,33.52,52.34l-49.08,12.84c-1.1,2.1-1.42,4.44-2.54,6.57-1.43,2.73-3.7,5.48-5.96,7.57ZM168.77,142.98l47.28-12.68c35.78-15.83,8.06-66.76-24.7-45.28l-35.08,36.33c7.51,5.33,11.75,12.4,12.5,21.62ZM157.55,130.15c-4.54-5.54-14.18-7.87-20.91-5.72-19.61,6.25-17.7,35.18,2.39,38.84,19,3.46,30.83-18.06,18.51-33.11ZM117.36,207.05c-1.68,6.24-3.34,9.45-1.89,16.3,5.35,25.32,41.16,27.97,49.88,3.67,2.27-6.32,1.54-10.88.16-17.23-3.16-14.5-7.74-28.76-10.84-43.28-6.04,3.51-13.6,3.68-20.11,1.66-1.01-.31-4.28-2.21-4.95-1.63-4.03,13.51-8.59,26.95-12.24,40.51ZM128.11,122.19c-3.48-4.01-7.47-7.59-11.32-11.23-7.48-7.08-16.55-16.6-24.49-22.71-6.92-5.32-17.4-7-25.4-3.22-24.08,11.39-19.96,44.62,5.94,49.83l44,9.19c-.19-8.6,4.19-16.98,11.27-21.86Z"/>
      <path class="st0" d="M181.93,206.86c20.72-12.53,34.07-35.75,35.2-59.79l5.62.55c-.6,26.11-15.8,50.47-37.72,64.53l-3.11-5.28Z"/>
      <path class="st0" d="M106.5,78.52l-2.89-4.91c22.45-13.06,51.51-13.88,74.5-1.94l-2.25,5.19c-21.77-10.67-48.08-10.35-69.36,1.67Z"/>
      <path class="st0" d="M100.33,205.51l-3.96,4.41c-2.49-3.02-6.18-5.08-9.01-7.8-13.64-13.08-23.1-31.82-24.57-50.7,1.19-.19,5.09-1.19,5.76-.08.41.68.9,6.24,1.24,7.7,3.7,16.04,11.43,29.5,23.68,40.51,1.06.96,7.01,5.15,6.86,5.97Z"/>
      <path class="st0" d="M166.9,83.64l-2.37,4.92c-14.9-5.44-31.77-5.6-46.27,1.32l-2.5-5.12c14.03-7.03,31.84-7.9,46.7-3.08.73.24,4.47,1.52,4.44,1.96Z"/>
      <path class="st0" d="M180.98,195.74l-3.26-4.69c12.93-9.15,21.32-23.96,23.5-39.5l5.95.6c-2.63,17.15-11.52,33.8-26.19,43.58Z"/>
      <path class="st0" d="M101.18,193.87c-9.01-8-16.24-18.22-20.18-29.69-.45-1.29-2.65-8.32-1.83-9.1l5.27-.81c2.26,10.68,6.71,20.32,14,28.55,1.27,1.44,5.89,5.2,6.42,6.15.58,1.04-3.1,5.02-3.69,4.91Z"/>
      <path class="st0" d="M152.4,135.21c12.46,15.17-13.76,31.75-21.81,12.74-5.23-12.37,12.78-23.72,21.81-12.74ZM148.4,139.62c-4.38-5.99-14-1.94-12.4,5.25,2.53,11.41,18.73,3.4,12.4-5.25Z"/>
    </g>
  </g>
</svg>