<?xml version="1.0" encoding="UTF-8"?>
<svg id="Layer_1" xmlns="http://www.w3.org/2000/svg" version="1.1" viewBox="0 0 283.46 283.46">
  <defs>
    <style>
      .st0 {
        stroke: #231f20;
        stroke-miterlimit: 10;
      }
    </style>
  </defs>
  <g id="na4V2l">
    <g>
      <path class="st0" d="M202.9,45.03c.42,1.89,2.1,7.54.04,8.62-1.18.61-4.08.06-4.09,2.03,0,1.64,2.07,7.63,2.72,9.55,1.36,4.06,4.54,10,5.02,14.02.21,1.8-.08,3.61.1,5.34,1.03,9.86,4.27,18.59,4.74,28.58.08,1.72,1.03,6.51-.13,7.65-1.91,1.87-12.47,2.28-14.71,1.07-.33-.18-.79-.4-.95-.75-.59-1.24,0-6.98-.21-8.97-.34-3.21-2.32-6.56-3.26-9.66-1.25-4.13-1.78-8.39-2.2-12.48s-.56-4.42-1.79-8c-2.18-6.35-2.79-11.61-4.07-18.03-.08-.39-.51-2.28-1.22-1.5.81,2.21.11,4.36,0,6.46-.73,14.59,1.85,26.34,3.69,40.5.95,7.32-.35,14.65,1.05,21.73.32,1.61-.4,2.12,1.04,3.72,1.94,2.16,5.85,2.32,6.62,5.62,1.24,10.82,4.91,23.28,3.59,34.17-.49,4.06-5.25,4.39-8.52,4.4-1.41,2.25-2.19,4.86-2.33,7.53-.85,15.52.3,30.58-1.41,46.19-.29,2.64-.37,11.78.09,14.21,1.15,6.13,9.53,12.91,10.12,18.1.18,1.54.06,5.54-.59,6.89-.12.25-2.67,2.54-3.03,2.75-2.56,1.53-4.61,1.1-7.03-.35-7.1-4.26-6.01-13.66-11.81-18.8-.39-.35-1.12-.3-1.34-.78-.13-.28-.97-4.44-1.03-5.01-.46-4.54.43-9.21-.38-13.9s-3.5-8.48-4.3-13.04-.07-8.79-.46-13.14c-.42-4.72-2.17-10.33-3.38-14.97-1.81-6.95-2.93-16.46-3.72-23.82-.16-1.51.2-3.26-.02-4.73-.18-1.17-1.18-2.5-1.5-3.6-1.38-4.64-2.39-9.78-2.56-14.61-1.9.31-4.29-.88-5.28,1.02-1.61,3.1-3.28,11.89-3.56,15.48s.56,8.43-.02,11.54c-.24,1.3-2.31,2.99-2.63,4.51-.38,1.85.07,4.35-.11,6.35-.3,3.24-1.71,6.55-2.26,9.64-.78,4.4-.52,7.92-2.3,12.32-.61,1.52-3.01,4.88-3.21,5.97-.42,2.26.12,5.99,0,8.5-.37,7.5-2.63,13.4-4.34,20.48-1.05,4.33-.03,8.24-.92,12-.61,2.56-3.21,4.29-4.09,6.79s-.18,4.59-.5,6.98c-.1.78-2.5,3.7-3.21,4.44-4.01,4.18-8.32,4.72-12.63.48-2.65-2.61-2.51-4.73-1.78-8.26,1.22-5.86,6.99-11.31,7.7-17.12.87-7.08-.69-14.33-1-21.37-.46-10.66.73-20.79,1.37-31.29.17-2.72-.38-6.3.02-8.82.17-1.08,2.36-4.07,2.36-4.78,0-.23-1.29-2.43-1.5-2.58-.67-.48-2.08-.28-3.11-.63-1.77-.6-2.29-1.87-2.5-3.62-1.02-8.71-1.18-16.38-.7-25.11.32-5.86-.65-7.74,3.1-12.88,1.66-2.27,3.8-3.46,4.6-6.28,2.27-7.93,1.4-19.31,1.47-27.76.1-12.33.3-24.57.32-36.9-.49.06-.91,1.17-.99,1.55-1.01,4.79-2.87,11.74-3.39,16.33-.24,2.18.12,4.58-.02,6.78-.61,9.47-7.25,18.22-8.17,27.87-.13,1.34.29,6.35-.16,6.99-1.24.15-1.29,1.13-2.09,1.64-2.86,1.83-10.67,1.65-13.73.21-.85-.4-1.71-1-1.72-2.04.16-3.46.9-7.11,1.06-10.53.45-9.6-.9-18.8,2.87-28.07,1.56-3.83,1.03-2.9,1.58-6.92,2.06-15.13,9.89-42.29,21.21-52.91,4.64-4.35,10.93-6.11,15.12-11.06,1.41-1.67,3.06-5.1,4.72-6.16.7-.45,2.88-1.21,3.71-1.39,5.67-1.22,15.19-.98,20.67.92,1.01.35,1.82,1.29,3.22,1.2,2.58,5.39,8.13,10.61,13.29,13.57,4.5,2.58,9.56,3.5,13.23,7.51,3.3,3.61,4.94,8.27,6.1,12.96l5.41-.5Z"/>
    </g>
  </g>
</svg>