<?xml version="1.0" encoding="UTF-8"?>
<svg id="Layer_1" xmlns="http://www.w3.org/2000/svg" version="1.1" viewBox="0 0 283.46 283.46">
  <path d="M104.2,50.66c-2.58-1.42-3.5-4.42-2.74-7.23,2.62-9.75,4.74-16.67,10.53-25.17,1.83-2.69,3.9-3.94,6.46-5.8,1.62-1.18,4.16-3.13,5.83-4.03,1.81-.97,4.03-1.36,5.98-2.13s3.12-1.87,5.37-2.07c4.78-.43,9.9.18,14.66.21,4.44.03,6.59.54,10.22,3.16,1.24.9,1.8,2.01,2.84,2.86,1.73,1.41,4.96,2.91,6.92,4.03,3.33,1.91,6.73,8.69,8.49,12.09.72,1.39,1.8,2.77,2.34,4.23.73,1.94.71,4.03,1.21,6.02.46,1.82,1.3,3.55,2.01,5.22,1.46,3.42,1.03,6.52-2.16,8.75,2.12,2.75.76,6.29-.47,9.15-3.47,8.02-6.71,9.67-6.1,19.74,1.48,24.16,11.9,45.42,18.29,68.21,8.72,31.11,11.81,61.31,9.74,93.62-.57,8.91-.09,15.34-9.58,19.11-6.38,2.54-13.05,2.68-19.26,5.93-12.82,6.71-18.96,14.04-35.22,12.74-12.54-1-19.36-8.89-29.75-13.61-11.68-5.31-25.06-1.43-26.86-18.47-3.37-31.86.7-67.71,9.26-98.48,6.4-22.99,17.21-44.99,18.55-69.26.52-9.52-2.38-11.3-5.84-18.9-1.21-2.67-3.13-7.16-.73-9.58v-.32ZM156.54,18.03c.34-.03.33-.33.42-.56,1.04-2.65,1.87-5.77,2.55-8.54-.06-.43-3.64-2.44-4.24-2.67-2.74-1.05-5.48-.12-8.27-.27-4-.21-8.12-.77-12.16-.13-.27.04-2.16.45-1.74.99l2.63,1.75c-1.11-.16-2.92-1.76-3.99-1.49-.28.07-.6.45-.98.57-4.96,1.67-6.51,2.27-10.78,5.42-.24.18-1.51,1.21-1.54,1.32,1.08,1.29,2.36,2.2,3.36,3.61.75,1.06,1.58,3.62,3.04,3.45,1.27-.15.91-2.23,1.09-3.08.55-2.6,2.06-5.08,3.34-7.39.29.14.02.6-.07.81-.78,1.99-2.29,5.31-2.24,7.4.02.81,1.66-.23,1.96-.45,2.62-1.85.86-4.76,2.43-7.32.41-.04.18.46.15.7-.06.66-.66,3.51-.03,3.66.56.14,2.6-1.24,3.08-1.71,1.57,1.03,2.97,1.57,4.83.9.7-.25,1.86-1.35,2.16-1.37.46-.04,1.26.67,2.18.69.43,0,2.3-.26,2.59-.44.15-.09,1.44-2.56,1.81-3.06.24-.33,2.14-2.74,2.5-2.43l-3.72,5.36,2.73,1.86c.89-2.08,1.33-4.42,2.95-6.13l-2.18,6.01c.17.71,2.34-.06,2.95-.09,1.94-.1,2.92.69,3.17,2.63ZM162.86,21.28c.75-2.51,1.87-4.94,3.7-6.86.07-.85-3.08-2-3.78-2.52-1.04-.78-1.58-2.16-2.74-2.85-.18,1.2-.4,2.39-.72,3.55-.34,1.23-2.29,5.64-2.1,6.36.32,1.21,4.39,2.57,5.63,2.32ZM175.81,23.72c.09-.33-.11-.37-.21-.56-.99-1.81-4.64-6.75-6.38-7.63-2.21-1.11-2.45-.4-3.57,1.42-.48.78-2.07,3.81-2.2,4.56-.33,1.82,1.84,4.11,3.74,3.96.46-.02,1.13-1.33,1.51-1.74.97-1.06,2.21-2.18,3.62-2.62-1.92,1.86-4.61,3.73-4.39,6.67.11,1.52,1.03,2.78,2.54,3.18.52-.01,2.26-3.13,3.38-3.07l-3.02,4.98c.14.91.21,2.16.66,2.96s1.49,1,1.69,2.25c.32,2-1,2.1-1.09,2.44-.19.75.23,1.71.23,2.47l1.77-2.49c2.28-2,4.85-2.17,7.64-1.23-.74-.79-.85-3.96-1.46-4.34-1.51-.95-4.05.86-5.11,1.94.69-2.29,2.75-4.14,5.25-3.29-.77-3.11-2.79-5.64-4.03-8.56-1.71-.64-3.18-.01-4.73.67,1.02-1.2,2.55-2.11,4.16-1.97ZM115.59,20.66c1.76.56,3.37,1.56,4.49,3.06.53-.94,2.3-2.26,1.99-3.29-.26-.84-3.2-4.55-3.99-5-.3-.17-.38-.23-.73-.15-.51.11-3.8,2.31-3.28,2.75l2.19.22-3,.72-3.78,6.4,2.84-.44c-3.47,1.64-4.33,2.37-5.7,5.91-1.07,2.76-1.82,5.7-2.63,8.54-.05.76,1.32-.27,1.8-.4,3.51-.95,6.91.75,8.06,4.23.3-.01.39-1.02.41-1.23.14-2.28-1.35-1.72-1.31-3.48.04-1.35.88-1.38,1.07-2.01.09-.28.11-2.57.02-2.67-1.9-.38-3.85-.76-5.79-.91-.55-.04-1.35.6-1.19-.21,1.33-.2,2.71-.32,4.06-.23,1.02.07,2.31.56,3.28.46,1.61-.16,1.99-2.64,1.98-3.96l-4.5-2.41c1.29-.44,4.37,1.49,5.11,1.48.91-.01,2.65-1.96,2.56-2.89-.11-1.14-3.11-3.63-3.94-4.5ZM169.41,32.09c-.04-.07-1.07-.6-1.39-.91-1.33-1.29-1.45-2.63-1.51-4.4-.88-.39-2.21-.55-2.95-1.21-.79-.69-1.11-2.59-1.55-2.83-2.43-.46-4.97-1.12-6.24-3.39-.45-.8-.7-2.29-1.64-2.54s-2.83.56-4.22.3c-1.28-.24-1.97-1.57-3.33-1.71-.86-.08-1.58.22-2.4.24s-1.8-.28-2.4-.23c-1.55.14-2.16,1.72-5.01,1.26-.62-.1-1.76-.82-2.03-.82-.16,0-2.81,1.33-2.94,1.43-.42.32-.42,1.05-.7,1.49-.86,1.38-2.87,1.9-4.21,2.8-.73.49-.68,1.21-2,1.3-.86.06-1.33-.45-1.75-.45-1.05.01-2.6,4.32-3.29,5.24-.54.72-1.6,1.22-1.94,1.78-.49.82-.29,2.08-.74,2.99-.36.74-1.47,1.29-1.7,2.02-.17.55-.31,1.64.27,1.94.46.24,2.4.5,3.09.63,14.13,2.75,29.03,3.07,43.25.91,2.69-.41,5.37-.94,8.03-1.5-.7-.82-.48-3.96-.7-4.33ZM171.62,39.03c.13-.67.09-1.37-.73-1.3-17.16,4.07-34.75,3.9-52.07.82-.97-.17-3.54-1.15-4.24-.61l-.32.57c0,.24.14.42.32.56.56.44,7.54,1.52,8.81,1.7,12.9,1.87,26.23,1.87,39.13,0,3.05-.44,6.11-1.01,9.1-1.74ZM110.33,49.56c3.61-2.21,3.09-7.67-.93-9.04-5.57-1.89-9.4,5.46-4.54,8.92.3.21,1.41.87,1.74.67l-.43-5.46c.35-1.67,2.76-1.88,3.39-.35.35.86.52,5.08.76,5.26ZM179.68,43.72c1.07.98,0,4.4-.05,5.85-.01.3-.2.38.22.65,4.25-1.33,5.36-6.79,1.36-9.23-5.6-3.42-10.79,4.81-5.3,8.58.69-1.28.35-4.51,1.01-5.56.54-.87,2.01-.96,2.76-.28ZM166.17,169.46v-25.51l-3.72,3.17-.11,22.23c-10.42,9.9-28.26,9.92-38.53-.22l.08-7.97c-.24-2.92-.16-5.87-.21-8.77-.02-1.47.25-3.98,0-5.26-.1-.51-2.31-2.44-2.84-2.85-.22-.17-.28-.42-.66-.33v25.51c-6.74,8.04-19.59,8.83-27.38,1.76-.68-.61-1.79-1.49-1.77-2.41,1.34-7.64,3.14-15.22,5.44-22.62,4.07-13.07,10.3-25.25,13.53-38.59,3.81-15.73,6.05-31.85,8.43-47.85l1.76-18.06-4.38-.66c-.55,9.17-1.22,18.35-2.19,27.48-1.09,10.18-2.4,21.03-4.44,31.04-2.55,12.45-7.44,24.12-11.39,36.13-10.46,31.87-15.13,63.46-14.17,97.07.15,5.41.27,17.2,2.89,21.64,3.93,6.66,16.44,6.71,23.1,9.53,11.85,5.01,18.17,13.77,32.8,14.06,15.71.31,21.79-8.73,34.35-14.06,6.54-2.77,18.13-2.87,22.57-8.74,2.92-3.86,2.97-13.36,3.2-18.26,1.47-30.27-2.04-60.8-10.41-89.91-5.06-17.58-12.62-33.89-15.82-52.07-3.14-17.87-4.45-36.06-5.87-54.14l-4.25.9c1.39,16.86,3.65,33.78,6.83,50.4,1.69,8.85,3.55,17.83,6.51,26.34,1.83,5.27,4.13,10.38,6.08,15.6,4.23,11.34,7.74,23,9.71,34.98-.06.67-1.73,2.24-2.32,2.73-6.54,5.41-16.13,5.7-23.17,1.06-.74-.49-3.5-2.63-3.65-3.35ZM118.65,150.3v-7.99c0-.53.99-.97,1.47-.61l5.05,4.59.05,21.85c.32,1.65,7.04,4.94,8.7,5.53,9.21,3.3,19.73,1.47,27-5.08l.32-22.45c.97-.75,4.42-4.41,5.3-4.56.63-.11,1.14.29,1.1.94l.06,7.78c8.75-5.19,9.58-15.4,7.82-24.57-.79-4.13-2.39-8.25-3.42-12.35-2.07-8.17-3.23-16.65-3.19-25.06.36.25.32.6.34.97.36,5.23,1.14,10.59,2.24,15.72,2.46,11.48,8.56,23.85,5.35,35.7-1.35,5-4.87,8.75-9.14,11.49l.05,16.77c6.17,6.82,17.04,7.44,24.15,1.68.59-.48,1.86-1.36,1.88-2.06-1.88-10.52-4.75-20.81-8.39-30.83-2.33-6.41-5.17-12.66-7.39-19.1-2.63-7.62-4.28-15.6-5.84-23.5-3.46-17.59-5.96-35.39-7.52-53.26-11.79,2-23.9,2.22-35.8,1.1-2.04-.19-4.37-.79-6.36-.88-.29-.01-.69-.05-.88.21-1.32,16.55-3.66,33.03-6.73,49.33-1.26,6.7-2.6,13.78-4.42,20.33-2.56,9.23-6.7,17.89-9.91,26.88-3.45,9.66-6.13,19.62-7.95,29.74.02.71,1.6,1.93,2.22,2.38,7.35,5.38,17.6,4.76,23.81-2l.05-16.77c-18.18-11.08-6.82-32.52-3.61-48.32.84-4.11,1.64-8.9,2.04-13.07.08-.83,0-1.66.03-2.49.9.51.23,1.73.21,2.51-.2,7.17-1.02,13.99-2.68,20.97-1.04,4.39-2.67,8.62-3.6,13.05-1.98,9.49-1.62,19.97,7.6,25.44ZM107.32,44.36c-.19.2-.28.65-.28.93.05,2.93,1.33,6.71,1.08,9.63-.03.32-.3.6-.32.88-.04.55.22,2.68.34,3.29.27,1.35,2.58.8,2.95-.11.32-.78-.63-4.12-1.15-4.98l-1.2-9.31c-.2-.53-1.06-.71-1.44-.32ZM179.04,44.36c-1.34-1.38-1.78,2-1.89,2.71-.33,2.19-.2,5.1-.73,7.15-.15.58-.62.78-.81,1.38-.1.33-.48,3.28-.43,3.45.2.63,2.03,1.04,2.61.7.49-.29.72-3.08.67-3.74s-.37-1.04-.38-1.47c-.11-2.62,1.19-6.53,1.23-9.27,0-.29-.04-.69-.25-.9ZM111.86,71.02l1.75-20.36-1.74,2.08c-2.23,1.02-.55,1.3-.27,2.45.1.43.53,3.6.49,3.88-.23,1.49-3.6,2.27-4.49,1.21-.22-.26-.78-3.97-.78-4.49,0-.71.71-1.27.41-2.15-.09-.27-2.36-1.95-2.59-.69-.84,4.54,3.96,10.27,5.66,14.26.46,1.08.76,2.17,1.1,3.29.11.36-.17.62.46.51ZM174.5,71.02c.41-.07.36-.46.46-.74,1.65-4.43,4.25-7.87,5.77-11.96.64-1.71,1.8-4.64.44-6.11-.31.49-1.78.98-1.97,1.29-.48.79.31,1.55.32,2.27,0,.41-.57,4.18-.68,4.37-.72,1.2-4.46.53-4.55-1.07-.03-.5.33-3.61.48-4.1.13-.43.84-.75.8-1.33l-2.82-2.98,1.75,20.36Z"/>
  <path d="M142.92,245.39c5.52-.37,7.54,8.13,7.72,12.31s-1.15,12.78-6.02,14.15c-6.22,1.75-8.7-7.14-8.89-11.72s1.14-14.33,7.19-14.74ZM142.68,248.45c-3.58.81-4.1,9.47-3.89,12.34.18,2.44,1.65,9.32,5.25,8.08,3.14-1.07,3.72-9.3,3.52-12.04-.17-2.28-1.59-9.12-4.89-8.38Z"/>
  <path d="M94.07,198.73c3.84-.46,3.34,5.8-.4,4.68-2.49-.75-1.98-4.39.4-4.68Z"/>
  <path d="M172.47,198.73c3.67-.44,3.51,5.49-.23,4.73-2.58-.53-2.18-4.44.23-4.73Z"/>
  <path d="M113.12,198.74c2.9-.55,3.93,4.34.8,4.77-3.11.43-3.81-4.19-.8-4.77Z"/>
  <path d="M191.73,198.74c3-.27,3.52,4.56.39,4.78s-3.52-4.5-.39-4.78Z"/>
  <path d="M154.28,203c-2.34,1.94-5.44-1.81-3.11-3.66,2.74-2.18,5.25,1.88,3.11,3.66Z"/>
  <path d="M132.6,198.96c2.15-.64,4.01.96,3.15,3.15-1.04,2.62-5.35,1.44-4.35-1.94.08-.25.95-1.13,1.2-1.2Z"/>
  <path d="M169.46,134.75c-15.24,10.68-37.32,10.7-52.56,0,16.55,7.88,36.01,7.84,52.56,0Z"/>
  <path d="M144.49,9.27c.18.16-2.99,2.51-3.3,2.72-3.64,2.32-5.24,2.26-7.43-1.73.22-.35.49.05.65.22.81.85,1.47,2.25,2.92,2.23s6.86-3.69,7.16-3.43Z"/>
  <path d="M178.22,30.51c-.31.3-1.24-1.46-2.53-.67-.59.36-.65,1.53-1.41,1.55,0-1.12,1.08-3.34,2.42-2.97.85.37,1.21,1.29,1.52,2.1Z"/>
</svg>