<?xml version="1.0" encoding="UTF-8"?>
<svg id="Layer_1" xmlns="http://www.w3.org/2000/svg" version="1.1" viewBox="0 0 283.46 283.46">
  <g id="XLCOTb.tif">
    <g>
      <path d="M120.45,240.08c-.36-.1-1.51-1.56-1.37-2.11l.11-24c.11-.45.27-.8.64-1.1,2.02-1.62,10.09.42,10.82-.61v-13.2c-10.29-2.36-20.05-5.92-29.04-11.46-57.94-35.72-52.83-122.2,8.68-150.99,64.19-30.05,134.77,26.2,120.74,95.44-6.75,33.31-34.51,60.81-67.99,66.79v13.42h9.31c.96,0,2,1.09,2.12,2.11.85,7.36-.65,16.33,0,23.86.15.61-.9,1.86-1.37,1.86h-10.06v16.52c0,1.2-1.25,1.99-2.36,2.11-8.56.96-18.84-.73-27.58.01-1.4-.02-2.33-.8-2.46-2.21-.44-4.76.69-10.79.12-15.58-.04-.36-.03-.64-.39-.86h-9.94ZM130.76,194.36v-7.08c-2.55-.95-5.36-1.54-8-2.43-61.06-20.63-68.11-104.81-11.54-135.64,63.48-34.6,133.66,32.59,102.47,98.03-9.44,19.8-29.1,35.36-50.64,39.67v7.45c34.78-6.45,62.28-37.44,65.08-72.68C233.63,52.28,156.01,7.35,99.14,48.3c-42.32,30.48-45.57,92.71-6.38,127.3,10.55,9.31,24.08,16.32,38.01,18.76ZM145.17,58.44l.64-13.67c-.5-.69-5.19.15-6.23.25-1.93.2-3.96.06-5.85.9l2.5,13.76c-.92-.35-3.88.98-4.36.26l-2.58-13.08-.33-.07c-1.4.46-10.54,3.24-10.84,4.1l5.45,12.76-3.98,1.64-5.47-12.31c-.37-.26-4.12,2.1-4.79,2.52-1.9,1.2-3.71,2.6-5.53,3.93l8.32,10.85c.05.29-2.59,2.51-2.96,2.71-.5.26-.91-.41-1.23-.77-2.67-2.91-4.93-6.82-7.59-9.81-.35-.09-4.65,4.34-5.21,4.97-.81.9-2.22,2.42-2.87,3.35-.15.22-.35.34-.12.63l10.53,8.24c.1.17.06.37,0,.54-.12.33-2.54,3.18-2.79,3.13l-10.1-8.06h-.74s-5.7,10.17-5.7,10.17l12.66,5.98-1.86,3.86-12.78-5.46-3.19,11.11.05.32,13.53,2.75-.72,4.44-13.26-2.72c-.34.1-.3.37-.39.62-.28.77-.45,3.26-.51,4.21s-.14,6.96.23,7.22l13.93-.39v4.22l-13.04.5c-.29.01-.49.12-.59.41-.21.62.85,6,1.09,7.05.17.75.99,4.54,1.52,4.7l13.25-3.7.99,4.21-12.89,3.89c-.21.7,4.25,10.23,4.95,10.67h.5s11.91-6.59,11.91-6.59l1.73,3.95-11.64,6.64c-.09.23.03.39.11.58.38.87,3.29,4.36,4.1,5.34,27.83,33.68,80.16,33.75,107.79-.25.48-.59,2.59-3.16,2.46-3.67-.18-.75-9.36-6.78-10.65-7.76l-.15-.63,2.17-3.18h.54s10.73,7.91,10.73,7.91c1.07-1.48,5.96-9.49,5.56-10.76-1.07-.69-2.6-1.41-3.82-1.91-2.87-1.19-5.9-2.15-8.82-3.23l1.63-4.23,12.62,4.96c.32-.1.3-.36.4-.61.29-.73.76-2.41.98-3.24.25-.93,1.74-7.49,1.48-7.79l-13.85-2.37.71-4.11,13.5,1.75.3-.49-.13-11.45-13.91,1.24-.5-4.47,13.65-1.26c.56-.59-1.95-9.48-2.4-10.86-.54-1.67-1.28-3.89-2.01-5.44-.2-.43-.6-1.59-1.11-1.54l-12.35,5.57-1.72-4.09,12.39-5.63c.05-.24-2.11-3.95-2.39-4.28-.13-.15-.01-.36-.44-.31l-11.82,7.11-2.12-3.62,11.29-7.53-3.33-4.39-4.47-4.48-9.82,9.84-2.94-2.99c.81-1.5,9.41-9.28,9.13-10.16-.06-.18-2.48-2.04-2.89-2.35-1.47-1.11-4.55-3.4-6.11-4.08-.26-.11-.62-.32-.89-.16l-6.75,11.54-3.97-1.88,6.86-11.66-.13-.39c-1.2-.83-10.62-4.83-11.19-4.34l-3.74,13.16-4.46-1.37c.51-1.5,4.15-12.2,3.86-12.8-.1-.21-.35-.37-.57-.44-1.28-.44-4.69-.84-6.19-1.02-1.63-.19-3.25-.41-4.9-.25l-.41.59-.5,13.05h-4.47ZM158.58,188.15c-7.73.74-15.53,1.27-23.2-.24l-.33.56c.13,1.82-.26,3.71-.08,5.53.06.59.02,1.07.68,1.3,7.62.92,15.35,1.1,22.93-.2v-6.96ZM158.58,212.25v-12.3c-.18-.23-.26-.32-.56-.33-.77-.02-2.76.6-3.79.7-4.58.42-10.08.42-14.65,0-1.45-.13-2.93-.43-4.35-.74v12.67h23.35ZM123.68,235.61h6.71c.93-1.03.09-2.73.1-3.85.04-3.39.1-6.79.07-10.19,0-.72.38-4.67.2-4.85l-7.05.28-.37.37-.04,17.6c0,.23.19.57.38.63ZM158.58,216.97c-.24.08-.54-.25-.62-.25h-22.73v18.88h23.35v-18.64ZM170.26,216.97h-7.2v18.64h6.83l.37-.37v-18.26ZM158.58,254.25v-13.79l-.37-.37h-22.98v14.16h23.35Z"/>
      <path d="M181.35,92.9c-7.56,8.78-17.19,16.86-25,25.55-1.01,2.65-2.28,5.19-5.04,6.39-1.14.49-2.35.48-3.41,1.06l-7.38,12.32c-1.01.6-2.15.79-3.05-.13l-12.47-14.85c-.49-1.07-.1-2.12.81-2.78l13.26-5.12c1.21-4.01,4-6.53,8.24-6.92l30.42-21c1.78-1.07,4.62,2.47,4.46,3.94-.05.42-.54,1.22-.83,1.55ZM155.11,113.11l.62-.24c3.47-3.88,7.6-7.46,11.05-11.3.23-.26,1.91-2.18,1.73-2.37l-15.41,10.54c-.72.86.5,1.17,1.14,1.88.37.42.76.93.87,1.49ZM145,120.48c3.22,2.7,8.78-1.5,6.09-5.72s-8.35-1.13-7.65,3.18c.08.49,1.2,2.25,1.55,2.54ZM139.68,120.09c-.42-.38-7.66,2.58-8.68,3.09-.06.33.09.5.25.75.64.97,1.96,2.51,2.75,3.46,1.46,1.75,3.14,3.34,4.6,5.09l.57-.4,4.2-7.42c-1.5-1.29-3.15-2.55-3.69-4.57Z"/>
      <path d="M125.74,157.63c.74-.1,1.24.21,1.91.21,12.78.15,25.32.1,38.02,0,.77,0,1.26-.33,2.16-.21,1.16.16,1.98.9,2.16,2.08.21,1.38.24,8.89-.04,10.12-.25,1.11-1.49,1.7-2.55,1.68l-41.94-.06c-.93-.34-1.68-1.14-1.86-2.12-.32-1.75-.25-7.25-.07-9.15.11-1.23.89-2.37,2.19-2.55ZM128.4,162.06l-.37.37v4.22l.37.37h36.76l.37-.37v-4.22l-.37-.37h-36.76Z"/>
    </g>
  </g>
</svg>