<?xml version="1.0" encoding="UTF-8"?>
<svg id="Layer_1" xmlns="http://www.w3.org/2000/svg" version="1.1" viewBox="0 0 283.46 283.46">
  <defs>
    <style>
      .st0 {
        fill: none;
        stroke: #000;
        stroke-miterlimit: 10;
        stroke-width: 5px;
      }
    </style>
  </defs>
  <g id="QZSJdC">
    <g>
      <path class="st0" d="M135.65,18.44v8.14c0,1.45,3.36,3.14,4.48,1.4,1.02-1.6-.2-8.87,1.25-9.07,25.37,2.6,47.55,14.19,60.75,36.38,17.89,30.06,22.36,91.65-.91,119.74-3.96,4.78-8.15,8.02-11.54,13.62-12.81,21.14-9.52,44.05-1.72,66.3.47,1.92-2.65,5.18-4.24,5.18h-43.15c-.28-2.91,2.46-13.87-2.7-13.33-.81.08-2.23,1.67-2.23,2.23v11.1l-36.04-.21c-2.66-.87-3.93-2.05-3.96-4.97-.07-7.05,4.58-16.98,3.38-24.05-1.55-9.07-14.71-6.78-21.29-7.8-4.04-.63-18.3-6.37-18.55-11.05,3.77-1.12,7.91-1.09,11.85-1.98,25.32-5.72,35.88-26.95,37.01-51.27.28-5.96-.51-11.89-.54-17.75-.12-20.6,1.49-43.97.04-64.16-1.28-17.79-14.31-32.44-30.59-38.45,7.54-6.9,17.17-12.69,26.87-16.04,10.23-3.53,21.07-3.98,31.82-3.94ZM140.58,66.03c.27-6.79,0-13.89,0-20.71,0-1.25-4.47-2.91-4.96,2.44-.31,3.46-.52,16.2.13,19.15.74,3.35,4.8,2.85,5.06-.1.03-.37-.24-.67-.24-.78ZM137.47,84.61c-1.19.36-1.71,2-1.84,3.11-.47,4.03-.46,14.73,0,18.76.28,2.47,1.81,4.12,4.25,2.75.42-.34.58-.77.68-1.29.57-3.02-.06-8.9,0-12.34.04-2.42,2.18-12.58-3.09-11ZM140.58,148.89v-22.69c0-.97-4.47-2.83-4.95,2.44-.57,6.19.37,13.36.14,19.66.2,2.35,4.2,2.68,4.81.59ZM136.95,165.97c-.92.32-1.21,2.22-1.3,3.14-.44,4.27-.5,14.54-.01,18.75s4.75,4.37,5.39-.06c.53-3.7.47-14.39.05-18.2-.26-2.36-1.29-4.61-4.12-3.63ZM137.47,206.43c-1.19.36-1.71,2-1.84,3.11-.47,4.03-.46,14.73,0,18.76.48,4.18,4.8,4.54,5.16.31.35-4.12.32-16.08-.19-20.07-.24-1.81-1.3-2.66-3.13-2.12Z"/>
      <path d="M208.98,50.64c.34.42,2.67,3.71,2.75,3.93.29.81-.35,1.77.07,2.34.37.5,1.62.48,2.29,1.2.2.21,2.68,4.25,3.02,4.87,17.24,30.88,20.82,92.67-1.56,121.92-7.69,10.05-13.51,13.1-18.15,26.74-3.89,11.44-2.18,26.65,1.01,38.72.87,3.27,3.48,8.62,3.71,11.61.39,5.02-4.34,11.53-9.52,11.95l-85.34.02c-3.94-.33-7.83-3.22-9.1-6.92l1.77-.45,84.29-.05c3.14-.48,5.53-1.93,7.63-4.21,1.09-1.18,1.11-3.08,2.97-2.71l-1.03-.78c1.38-3.82.25-6.56-.72-10.06-5.35-19.32-9.08-34.03.36-53.43,3.31-6.8,10.15-13.37,15.41-19.59.52-.61,1.39-.75,1.65-1.05.09-.11.11-1.8.91-2.41.41-.31,1.52-.29,1.65-.48s-.61-1.92.57-3.61c1.7-2.44.62-1.41,1.63-3.78.55-1.28.52-1.04,1-2.43,1.48-4.19,3.43-8.32,3.72-12.83l.98.98c.03-.88-.47-1.7-.38-2.59.58-5.25,2.47-10.93,2.84-16.4.95-14.18-.23-33.26-3.27-47.13-1.02-4.64-3.7-9.62-3.14-14.28l-.95.47c-1.1-1.58-.96-4.08-1.53-5.51-.84-2.09-3.93-8.69-5.46-11.39-.85-1.5-3.91-4.49-4.39-6.02-.08-.25-.13-.81.24-.73.85,1.5,3.23,3.08,4.04,4.09Z"/>
      <path d="M67.25,229.85c-1.42-1.17-2.78-2.88-3.61-4.52-.11-.34.41-.34.73-.24,2.12.67,4.62,2.25,6.9,2.97,6.5,2.05,12.89,1.91,19.64,2.55,3.06.86,1.43,7.02.62,7.18-7.37-.6-18.5-3.19-24.28-7.94Z"/>
    </g>
  </g>
</svg>