<?xml version="1.0" encoding="UTF-8"?>
<svg id="Layer_1" xmlns="http://www.w3.org/2000/svg" version="1.1" viewBox="0 0 283.46 283.46">
  <!-- Generator: Adobe Illustrator 30.0.0, SVG Export Plug-In . SVG Version: 2.1.1 Build 123)  -->
  <defs>
    <style>
      .st0 {
        fill: none;
        stroke: #000;
        stroke-miterlimit: 10;
        stroke-width: 4px;
      }
    </style>
  </defs>
  <g id="fGs7XR">
    <path class="st0" d="M253.41,151.28c-.12,0-.24-.38-.39-.38l-.58.57c.99,5.13.09,10.51-.09,15.71-1.6,1.5-4.81,5.85-6.85,6.18-1.8.29-10.91.34-12.6.01-1.94-.37-4.01-4.17-6.35-4.32-2.8-.18-5.45,4.01-7.09,4.32-1.42.27-9.97.26-11.42-.01-1.8-.33-2.89-2.56-4.19-3.31-4.81-2.75-6.01,2.63-9.34,3.23-1.43.26-11.43.3-12.33-.11-1.33-.6-3.65-4.14-5.72-4.17-2.36-.03-4.59,3.8-6.8,4.29-1.49.33-7.74.3-9.4.09-3.24-.4-5.96-3.6-8.23-4.42-1.89-.68-4.01-.03-5.92-.63-2.18,1.18-3.05,4.95-5.59,5.41-5.41.99-14.18-.46-20.13,0-5.24.41-6.55,5.08-10.73,7.43l-19.23.43c-.5.36.16,3.43-1.23,4.77-1.67,1.61-8.51.43-11.06.78-.92.13-1.41.7-2.33.83-2.84.4-12.64-.73-14.26.34-.57.37-.84,1.41-1.04,1.52-.41.24-5.9.16-6.75,0-1.36-.27-1.05-1.09-1.62-1.51-1.42-1.04-11.2.02-13.87-.35-.87-.12-1.43-.74-1.97-.79-6.41-.55-15.29.86-16.38-7.7l.02-76.59c-.04-2.69,3.28-6.65,5.8-7.22,1.65-.38,4.03.04,5.83-.09,2.71-.18,4.83-.9,7.1-1.19,3.75-.47,8.42.41,12.25.01,1.78-.19,1.76-1.12,2.04-1.18.87-.19,6.48-.14,7.33.09,6.17,1.67,9.42.35,15.11,1.07,1.21.15,1.67,1.01,2.76,1.18,2.75.44,6.7,0,9.43.44,3.01.48,2.02,4.26,4.38,4.7l17.57.19c2.01,1.44,5.61,6.85,8.09,7.3,2.61.48,5.76-.35,8.25-.39,3-.05,12.19-.5,14.44.19,1.69.52,4.27,4.14,4.98,5.77,1.62-.44,3.8-.17,5.28-.6,1.94-.57,5.44-4.06,7.5-4.73,1.05-.34,10.51-.46,11.55-.15,1.24.85,2.35,3.18,3.6,3.89,4.05,2.33,6.48-3.57,9.88-3.98,1.53-.18,10.26-.25,11.38.09,1.35.4,1.16,2.21,1.55,2.59.25.25,3.87,1.71,4.45,1.71,2.62,0,4.75-2.99,6.7-4.4h12.58c.66,1.86,3.73,4.37,5.58,4.41,3.5.08,4.74-3.92,7.12-4.37,1.65-.32,10.86-.27,12.6.01,1.92.32,1.57,1.54,2.37,2.36,1.37,1.42,3.59,2.51,4.37,4.33.93,2.19.45,4.61.6,6.9.16,2.53.92,5.3.09,7.92l.5.57h14.21c.71,0,1.3,2.28,1.38,2.96.4,3.49.32,11.04.02,14.62-.09,1.01-.48,3.34-1.79,3.34-4.46,0-8.96.12-13.42,0ZM259.02,135.58c-6.47,1.36-4.79,11.56,2.58,9.68,5.13-1.3,3.44-10.95-2.58-9.68Z"/>
  </g>
</svg>