<?xml version="1.0" encoding="UTF-8"?>
<svg id="Layer_1" xmlns="http://www.w3.org/2000/svg" version="1.1" viewBox="0 0 283.46 283.46">
  <g id="C7JYJ2.tif">
    <path d="M276.4,151.24l-1.24.39c-.32,1.1.61,1.61.71,2.23.2,1.24-.62,5.38-1.01,6.76-5.58,19.55-31.95,36.41-49.51,44.55-9.46,4.38-25.37,10.4-35.52,7.91-7.17-1.76-13.22-7.35-17.59-12.88-8.08-10.21-13.27-22.96-21.38-32.64-1.72-2.05-3.98-3.77-6.47-4.74-3.13,1.21-5.38,3.59-7.43,6.19-10.1,12.75-17.59,33.96-32.05,41.75-12.73,6.86-31.76-.74-43.93-6.64-17.89-8.67-45.83-27.34-47.92-48.85-.08-.85-.23-1.71-.29-2.43-.37-4.46.51-9.71.06-14.25l.46-.73c.1-.19-.47.06-.52-.47-.26-2.75.44-6.49,0-9.36l.52-.47c.12-.55-.34-.29-.43-.42-.11-.17-.27-3.96.42-3.64v-.36c-.02-.23-.43-.03-.49-.29-.45-1.92.14-7.8.16-10.23,0-.69-.51-3.1.09-3.49l.74.14c-.11-1.05.15-2.32.02-3.33-.06-.48-.78-.26-.5-1.2.18-.58.9-.05.97-.13v-1.23s-.49.25-.49.25c-.5-1.35.2-.81.44-1.39.39-.92.51-2.56.85-3.57,7.37-21.69,26.76-32.96,48.7-35.79.82-.11,1.93.16,2.65,0,.2-.05.07-.45.52-.5,6.87-.9,18.8.29,25.78,1.03,16.15,1.72,31.08,5.91,46.98,8.54.8.13,1.92.5,2.17.53,2.35.31,4.95-.28,7.26-.64,1.02-.16,1.91-.48,3.1-.59,1.62-.15,2.55-.47,4.2-.95,2.01-.59,4.28-.62,6.33-1.04,25.25-5.18,55.74-11.69,80.64-1.76,12.58,5.02,24.13,15.25,29.18,28.05.45,1.13,2.74,7.81,2.59,8.41-.02.09-.94.64-.49,1.64h.99c.39.94-.47,1.22-.51,1.58-.1.78.11,1.78.02,2.6.38-.2,1.11-.24.98.36s-1.29-.21-.98.49c.19.43.89.05.98.61l-.98.37,1.23.62v39.03ZM126.24,88.94c-.4-.22-7.67-1.47-8.96-1.72-19.82-3.9-50.29-9.65-68.09.09-5.62,3.08-11.25,8.31-14,14.05-3.65,7.61-2.48,16.1-2.53,24.47-.04,6.67-.28,13.39-.21,20.12.05,4.79-.32,9.8,2.59,13.87,8.45,11.82,25.1,22.46,38.45,28.36,4.8,2.12,15.76,6.39,20.76,5.78,1.64-.2,4.5-3.14,5.65-4.42,12.78-14.32,22.3-47.52,45.93-46.16,21.3,1.23,31.04,32.35,43.37,46.28,1.11,1.26,2,2.53,3.64,3.47,1.34.77,2.28.96,3.84.82,9.39-.83,21.73-6.92,29.79-11.53,8.67-4.95,17.86-11.1,23.89-18.54,2.37-2.93,4.82-5.36,5.66-9.32l-.03-46.15c-1.45-7.23-5.75-13.88-11.66-18.06-16.82-11.89-38.72-8.74-57.75-5.66-8.79,1.42-18.38,2.83-26.57,5.16-4.39,1.25-13.4,2.5-17.89,2.23-3.02-.18-13.67-1.92-15.9-3.14Z"/>
  </g>
</svg>