<?xml version="1.0" encoding="UTF-8"?>
<svg id="Layer_1" xmlns="http://www.w3.org/2000/svg" version="1.1" viewBox="0 0 283.46 283.46">
  <g id="Pm4Qzy.tif">
    <g>
      <path d="M125.93,49.63c.08.03,1.31.74,1.38.79,1.13.88,2.8,4.87,3.04,6.31,1.12,6.66,2.04,14.97,5.97,20.59,1.46,2.09,4.21,3.8,5.7,5.77.34.45,1.82,3.06,1.89,3.45.39,1.95-.38,1.81-.92,2.86-1.57,3.04-5.05,6.78-7.33,9.48-.9,1.06-3.27,2.57-2.45,4.05.28.51,6.83,3.37,7.88,3.78,12.99,5.03,33.02,5.46,46.68,2.25,2.32-.55,4.07-1.16,6.24-1.9,3.39-1.16,6.91-2.05,9.78-4.32.43-1.24-.3-1.44-.78-2.12-.76-1.1-1.1-1.08-1.87-1.98-.57-.66-1.1-1.67-1.54-2.19-3.16-3.69-8.61-7.39-5.05-12.7.69-1.02,1.54-1.41,2.24-2.18.63-.69.92-1.16,1.58-1.85,2.87-3.01,4.34-5.84,5.58-9.88,1.69-5.52,2.12-11.38,3.74-16.86.08-.29,1.01-1.38,1.29-1.69,1.37-1.53,3.75-2.62,5.82-2.28s6.33,2.88,8.58,3.9,4.73,1.94,7.09,3.14c.51.26.19,1,1.7.83s1.28-5.05,1.49-6.12c.1-.55.54-.68.66-.97.39-.98.2-1.97,1.71-2.36,1.84-.48,3.46.6,4.02,2.36.39,1.23-.28,1.29-.41,2.06-.21,1.26-.24,2.48-.47,3.86-.27,1.6-.8,2.52.62,3.7-.8,7.77.84,16.1-.91,23.66-2.91,12.53-10.53,24.02-18.5,34.35-1.15,1.49-4.58,4.66-4.86,6.26-.17.96-.18,8.67.04,9.41.3,1.01,1.33.55,1.92.79.82.35,3.01,1.92,3.17,2.79.31,1.65.02,3.78-1.63,4.59-.87.42-3.26.19-3.47.86l-.31,22.86c-.52.08-.81-.38-1.28-.48-4.35-.93-8.56-2.58-13.22-2.78-21.08.85-43.01-1.1-64,0-14.26.75-28.62,8.17-36.87,19.78-.39.55-1.69,1.77-1.88,2.19-.2.46-.04,1.1-.18,1.31-.11.18-.76.12-.98.37-.14.17-1.64,3.37-1.9,3.93-.24.51-.7,1.63-.97,2.27-.69,1.63-1.2,3.32-1.79,5l-13.05-.81c-1.18-.33-.46-1.43-.51-2.17-.84-11.59-.58-25.28-.03-36.92.03-.58-.26-2.93-.01-3.22.6-.72,2.7-.3,3.69-.4,6.57-.66,13.17-1.26,19.78-1.63,3.16-.18,5.54-.16,8.7-.51s6.67-.47,10.01-.57l.91-.72-.36-7.4c-.4-.8-2.57-.51-3.54-1.07-1.17-.69-1.83-3.48-1.43-4.72.12-.36,2.7-2.4,3.13-2.55.64-.22,1.63.18,1.92-.79l-.02-10.18c-1.02-1.49-2.32-2.73-3.46-4.14-6.9-8.51-11.49-16.31-16.75-25.78-.35-.62-.18-1.59-.39-1.93-.11-.18-.7-.23-.89-.59-.28-.54-.03-1.33-.2-1.97-.66-2.44-1.96-5.11-2.35-7.68-.36-2.33-.67-20.25-.14-21.52.09-.23.51-.4.61-.74.25-.81-.63-5.09-.79-6.42-.08-.66-.54-1.22-.46-1.86.32-2.52,3.52-4.04,5.35-1.94s1.14,7.69,2.3,8.54,1.83-.48,2.67-.89c3.57-1.78,8.05-4.1,11.66-5.69,2.64-1.16,4.62-1.84,7.42-.65ZM118.43,66.6c-1.29-.38-1.6.4-2.34.77-1.95.97-4.15,2.43-6.33,2.21.15,1.4-.2,3.14-.01,4.49.12.85.79,1.42.98,2.27,1.61,7.47,4.78,14.56,8.95,21.13.14.23.37.53.65.57-.68-3.28,1.15-3.69,2.85-5.69,1.35-1.59,2.54-3.41,3.88-5.02-2.65-2.63-5.52-6.77-6.66-10.37-.53-1.67-.53-4.04-.95-5.56-.11-.4-.58-.71-.7-1.2-.12-.53-.18-3.45-.33-3.6ZM227.14,69.31c-2.27.52-3.2-.66-4.91-1.46-.45-.21-.94-.25-1.43-.47-.69-.31-1.05-1.19-2.34-.78-.13.13-.18,3.12-.29,3.65-.91,4.6-2.27,9.7-5.14,13.57-.41.55-3.2,3.28-3.2,3.52l6.59,7.73.14,2.98c.67-.47,1.31-1.5,1.73-2.2,3.41-5.65,7.6-14.91,8.78-21.31.29-1.6-.09-3.58.06-5.22ZM134.16,149.27h68.18l.41-.68c.2-3.42-.21-6.9-.14-10.3,0-.22.42-.66.43-1.33.11-6,0-12.05-.16-18.05-1.04.44-2.26.95-3.32,1.29-1.95.62-5.89,1.86-7.86,2.17-12.83,2.02-38.78,2.22-51.1-1.08-.83-.22-6.47-2.37-6.7-2.1l.27,30.08ZM96.21,164.99h-4.47c-.09,0-.41.36-.68.27v4.88l5.15-5.15Z"/>
      <path d="M203.48,166.7c2.36,1.03,5.39,1.3,7.99,2.16,4.91,1.63,10.58,5,14.65,8.31.57.46,4.06,3.35,4.22,3.58.13.19.04.74.31,1.18.54.88,2.17,2.05,2.99,3.25,1.34,1.96,2.85,4.59,3.85,6.72,3.41,7.24,5.55,17.35,5.93,25.51.05,1.18.18,5.17-.31,5.95s-1.4.57-2.15.83c-2.71.95-5.49,1.44-8.29,2.29-4.91.72-12.64-.93-17.21.14-.78.18-1.64.75-1.64,1.65-.06.6,1.1,1.84,1.57,1.98,1.13.34,5.74.09,7.27.07.64,0,1.22-.28,1.87-.29.25,0,1.49.14,1.5.55-.65.06-1.39-.1-2.02.02-2.73.52-5.71,1.43-8.45,1.85-7.6,1.18-15.21,2.3-23.01,3.01-15.77,1.44-31.91,1.35-47.7,0-10.23-.87-20.03-2.44-30.03-4.13-1.25-.21-2.42-1.2-3.99-.75-.04-.38,1.05-.52,1.26-.52.81-.02,1.4.25,2.11.26,1.48.02,8.59.22,9.36-.15,1.09-.52,1.22-3.2-.19-3.6l-19.17-.08c-2.78-.89-5.58-1.28-8.29-2.28-.68-.25-1.41-.31-2.05-.66-.3-.43-.19-9.19-.12-10.45.16-2.82.85-6.92,1.36-9.75.13-.71.86-1.14,1.01-1.7.31-1.2.31-1.91.75-3.31,5.47-17.52,19.09-28.34,37.12-31.73,19.71.04,39.41,0,59.12.03,1.75,0,9.29-.39,10.35.08ZM229.31,213.23c-.36-.91-.17-1.88-.34-2.77-1.1-5.71-4.33-13.7-7.69-18.6-4.8-7.03-17.19-10.96-25.16-12.52h-55.6c-7.3,1.56-14.49,3.66-20.58,8.16-6.73,4.98-10.87,16.17-12.08,23.97-.08.5-.42.88-.53,1.37-.07.6.07.33.41.4,6.9,1.34,14.63.14,21.68.56l7.94,7.51c13.34,1.81,27,2.8,40.6,2.25,6.4-.26,16.25-.98,22.28-2.66.55-.15,1.14.04,1.69-.21,1.08-.48,4.54-4.87,5.96-5.97.48-.37.96-.71,1.56-.88,6.61-.37,13.34.52,19.86-.61Z"/>
      <path d="M27.35,193.45v-37.81c0-.07.52-.57.71-.61l41.99.18.53.58.16,36.46c.1.92-.59,1.73-1.49,1.76-12.96-.64-26.79.93-39.61-.3-.84-.08-1.41.36-2.29-.26ZM57.98,167.97h-17.89v13.28h17.89v-13.28Z"/>
    </g>
  </g>
</svg>