<?xml version="1.0" encoding="UTF-8"?>
<svg id="Layer_1" xmlns="http://www.w3.org/2000/svg" version="1.1" viewBox="0 0 283.46 283.46">
  <!-- Generator: Adobe Illustrator 30.0.0, SVG Export Plug-In . SVG Version: 2.1.1 Build 123)  -->
  <g id="EchiW9">
    <path d="M164.73,16.99c.52.49,10.38,2.62,12.3,3.24,26.49,8.47,20.7,25.98,23.29,49.03.79,7.07,3.51,16.27,3.72,22.74.11,3.29-3.16,3.58-5.85,4.34-4.65,1.31-9.72,2.17-14.46.86l-5.21-29.56c-.93.18-.76.98-.92,1.62-1.38,5.48-1.21,14.19-.95,19.95,1.25,26.99,6.76,53.5,5.6,80.67-.36,8.57-1.65,17.33-2.94,25.81-.48,3.15-2.48,9.62-2.43,12.19.04,1.98,2.38,8.03,2.89,10.79,1.56,8.35,1.93,17.79,1.52,26.29-.31,6.51-1.29,19.37-2.89,25.39-.13.5-.37,1.25-.81,1.51-.71.42-15.02.51-16.47.23-.55-.1-.92-.17-1.06-.79l-3.83-62.47c-4.98-11.02-7.01-22.9-8.79-34.8-.12-.81.25-.78-.91-.7-1.23,12.17-4,24.26-8.78,35.49l-3.58,61.79c-.28.87-.31,1.28-1.31,1.47-1.72.33-14.01.32-15.77,0-1.01-.19-1.27-.81-1.51-1.73-1.64-6.17-2.62-19.19-2.91-25.83-.41-9.33.1-18.98,2.1-28.07.47-2.14,2.47-7.09,2.48-8.56.04-3.17-2.49-11.83-3.1-15.85-2.75-18.28-3.26-37.6-1.47-56.02,1.52-15.59,3.91-31.1,4.65-46.81.27-5.75.43-14.48-.95-19.95-.16-.65,0-1.45-.92-1.62l-5.21,29.56c-4.87,1.32-10.4.36-15.19-1.05-2.57-.76-5.22-1.02-5.12-4.15.21-6.44,2.93-15.71,3.72-22.75,1.16-10.35.42-27.42,4.93-36.33,5.33-10.52,20.03-13.19,30.46-15.79,1.05-2.15,2.27-4.16,4.35-5.5l26.78-.08c2.5.37,3.6,4.57,4.53,5.44ZM142.36,108.67v8.35c-2.37,2.15-6.94.35-9.97.24-1.82-.07-11.69.32-12.52,1.38l-1.15,7.89c18.84.57,37.73.62,56.57,0l-1.15-7.89c-.83-1.05-10.63-1.45-12.52-1.38-3.04.11-7.6,1.91-9.97-.24v-8.35c7.2-4.32,11.35-6.15,12.05-15.31.81-10.55-2.35-30.98,10.08-35.81,1.69-.66,5.93-2.06,7-.27l6.59,35.83c4.22.44,8.07-.53,12.01-1.86-1.35-7.62-2.86-15.21-3.69-22.92-.98-9.09-.39-27.02-5.01-34.39-4.97-7.93-17.24-9.94-25.58-12.2-.02.78-.13,1.58.23,2.32.82,1.74,8.98,3.02,11.35,3.95,17.88,7,15.36,23.35,16.7,39.4.21,2.53,2.35,7.51-.92,8.39-2.68.72-2.92-3.42-3.2-5.2-2.23-14.32,2.43-31.32-13.8-38.12-4.7-1.97-13.45-2.09-14.8-7.92-.68-2.94.82-6.54-1.9-8.77-6.14.34-12.33.59-18.49.41-2.75-.08-5.52-1.93-6.48,1.82-.9,3.51.92,6.59-2.31,9.74-2.53,2.47-6.68,2.56-9.85,3.59-18.16,5.91-14.83,18.88-16.34,34.66-.21,2.23-.6,12.53-4.62,9.27-1.91-1.55-.22-5.52-.02-7.88,1.36-16.15-1.18-32.65,17.04-39.52,2.58-.97,11.92-1.99,11.7-5.45-.07-1.01-2.99-.04-3.61.09-7.26,1.5-18.29,4.83-22.42,11.42-4.73,7.55-4.34,28.8-5.53,38.51-.76,6.24-1.96,12.41-3.22,18.55,3.74,1.83,7.94,2.43,12.06,2.11l6.59-35.83c1.06-1.77,5.32-.41,7,.27,13.9,5.64,8.17,28.52,10.66,39.88,1.39,6.38,6.73,7.87,11.48,11.24ZM120.11,113.54l17.41-.12.71-1.05c.13-1.58-4.02-3.33-5.35-4.41-9.56-7.68-6.35-18.46-7.2-29.43-.43-5.51-1-13.73-6.48-16.46,5.61,16.95.92,34.18.92,51.46ZM173.89,113.54c.02-17.28-4.72-34.52.92-51.46-5.44,2.7-6.1,10.99-6.48,16.46-.79,11.26,2.45,21.86-7.46,29.63-1.32,1.03-5.23,2.6-5.09,4.2l.71,1.05,17.41.12ZM176.21,130.7c-1.51-.25-2.92.43-4.39.48-16.52.59-33.61.5-50.11,0-1.13-.03-3.04-.99-3.71-.04l-.21,1.41c11.36.91,22.87,6.34,28.71,16.4l.96.29c5.54-10.29,17.38-15.77,28.75-16.7v-1.84ZM126.14,225.97v41.96h3.71s3.74-60.93,3.74-60.93c4.75-10.58,6.95-22.07,8.7-33.49.79-5.14,2.42-13.59,2.41-18.48,0-3.89-8.78-11.47-12.11-13.39-4.26-2.46-10.38-4.72-15.28-4.14-1.91,17.36-1.44,34.94,1.03,52.24.68,4.77,3.64,14.82,3.55,18.64-.05,2.11-2.54,5.76-2.26,7.84.12,1.32,1.6,1.5,2.33,2.34,1.57,1.8,3.84,5.05,4.17,7.42ZM167.86,267.92v-41.96c0-.81,1.57-3.96,2.12-4.84.73-1.16,4.32-4.4,4.4-4.91.19-2.49-2.03-5.69-2.12-7.86-.12-3.15,2.35-11.49,2.94-15.39,2.35-15.52,3.31-31.55,2.39-47.21-.15-2.63-.57-5.65-.9-8.28-.56-.98-5.93.46-7.08.76-8.65,2.27-16.95,8.42-20.33,16.8,2.43,17.54,3.9,35.61,11.13,51.95l3.74,60.94h3.71ZM119.65,267.93c1.11.07,2.21.16,2.32-1.16-.72-12.06.95-25.18.02-37.11-.21-2.68-1.01-6.19-3.49-7.64-2.82,15.13-.47,30.75,1.16,45.91ZM175.74,222.03c-2.27.71-3.48,4.55-3.7,6.73-1.19,11.84.89,25.53-.03,37.57l.09.84c.07.83,2.18,1.13,2.26.48,1.87-15.09,3.61-30.47,1.39-45.62Z"/>
  </g>
</svg>