<?xml version="1.0" encoding="UTF-8"?>
<svg id="Layer_1" xmlns="http://www.w3.org/2000/svg" version="1.1" viewBox="0 0 283.46 283.46">
  <g id="Zx8ajz.tif">
    <g>
      <path d="M222.12,103.76v5.92l-.99,13.69c-2.69,25.23-11.17,49.61-12.59,75.01-.12,2.21.13,4.47.02,6.68-1.48,30.03-28.18,56.43-57.18,61.24l-7.45.81c-1.31-.04-2.64.06-3.95,0-29.81-1.38-55.66-20.57-61.59-50.54-1.55-7.82-1.03-15.05-1.55-22.87-1.96-28.96-14.46-56.25-14.81-85.38-.39-33.55,8.52-69.61,42.2-83.66,20.66-8.62,51.13-8.97,72.14-1.37,35.05,12.68,44.76,46.3,45.75,80.45ZM138.95,24.86c-15.28.47-31.06,3.52-43.58,12.66-20.46,14.95-25.92,42.1-26.43,66.1-.65,30.76,12.79,59.36,14.81,89.84.48,7.19-.03,13.93,1.31,21.14,6.34,34.14,43.15,53.87,75.53,42.16,20.88-7.55,39.84-28.61,41.07-51.45.65-12.1,1.32-21.73,3.52-33.74,6.12-33.35,14.79-61.48,6.71-95.95-8.24-35.15-32.19-50.04-67.33-50.84l-5.61.08Z"/>
      <path d="M140.67,57.93c12.49-.8,23.32,8.86,24.23,21.26v110.82c-2.57,28.31-42.74,28.53-45.65.24v-110.82c.71-11.49,9.93-20.77,21.42-21.51ZM140.43,63.11c-8.24.74-14.74,7.27-15.95,15.38l-.04,111.77c2.62,21.1,32.09,21.46,35.25.45l.04-111.76c-1.15-9.61-9.56-16.71-19.3-15.83Z"/>
      <path d="M179.97,229.88v3.16c5.76,1.23,4.08,9.76-1.77,8.55-4.6-.95-4.38-7.39-.02-8.57l.03-3.16c-10.39-.7-16.71-12.07-11.44-21.21,4.77-8.28,16.41-9.58,22.8-2.37,7.85,8.86,1.98,22.63-9.6,23.6ZM179.94,224.67c6.71-.82,10.28-8.07,6.62-13.9s-12.04-5.38-15.29.41.42,12.71,6.95,13.49v-5.68h1.73v5.68Z"/>
      <polygon points="105.21 100.05 104.96 102.65 95.34 106.35 105.21 106.22 105.21 108.69 90.9 108.69 91.14 106.1 100.52 102.4 90.9 102.52 90.9 100.05 105.21 100.05"/>
      <polygon points="193.51 158.79 193.27 161.38 183.89 164.83 193.51 164.71 193.51 167.18 179.2 167.18 179.44 164.58 189.07 161.13 179.2 161.25 179.2 158.79 193.51 158.79"/>
      <polygon points="193.51 102.77 193.51 105.48 187.59 105.48 187.59 108.44 193.51 108.44 193.51 111.16 179.2 111.16 179.2 108.44 185.12 108.44 185.12 105.48 179.2 105.48 179.2 102.77 193.51 102.77"/>
      <polygon points="105.21 156.32 105.21 159.03 99.29 159.03 99.29 161.99 105.21 161.99 105.21 164.71 90.9 164.71 90.9 161.99 96.82 161.99 96.82 159.03 90.9 159.03 90.9 156.32 105.21 156.32"/>
      <path d="M185.82,147.99c3.05-.09,8.11.93,7.88,4.93-.27,4.55-8.55,4.56-11.67,3.4-2.32-.86-3.63-2.99-2.63-5.37s4.19-2.91,6.42-2.97ZM185.32,150.72c-1.38.09-4.11.26-4.03,2.14.99,2.04,9.83,1.85,10.21-.15s-5.04-2.06-6.18-1.99Z"/>
      <path d="M95.53,110.73c2.61-.31,7.92-.28,9.32,2.38,1.03,1.97.42,4.09-1.49,5.2-3.3,1.93-12.52,1.74-12.62-3.38-.05-2.71,2.44-3.93,4.79-4.21ZM95.28,113.44c-.92.13-1.89.47-2.37,1.33-.45,2.39,6.77,2.07,8.16,1.76.94-.21,1.81-.6,2.12-1.59.17-1.96-6.69-1.68-7.91-1.5Z"/>
      <path d="M179.2,121.52v-2.47s3.43-.52,3.43-.52l-.12-2.72-3.2-.7-.11-2.48,14.27,3.36-.2,2.94-14.07,2.58ZM190.79,117.08l-6.16-.99v2.22c1.76-.44,3.75-.43,5.48-.81.24-.05.74-.09.68-.43Z"/>
      <path d="M105.2,145.71l-.1,2.48-3.2.69-.13,2.73,3.44.51v2.47s-14.27-3-14.27-3l-.03-3.17,14.3-2.72ZM99.78,149.16c-1.92.27-3.87.46-5.79.75-.43.06-.41-.13-.37.49l6.16.99v-2.22Z"/>
      <polygon points="105.21 123 105.21 125.72 99.16 125.72 90.9 128.68 90.93 126 97.31 124.11 91.04 122.54 91.02 119.8 99.16 123 105.21 123"/>
      <polygon points="185.24 141.76 193.51 138.8 193.48 141.48 187.09 143.36 193.36 144.94 193.39 147.68 185.24 144.47 179.2 144.47 179.2 141.76 185.24 141.76"/>
      <path d="M93.09,130.19c-.58,4.07,3.21,4.44,6.33,4.17,2.66-.23,3.87-1.41,3.6-4.17l2.18-.28c2.6,10.11-16.69,9.59-14.18-.01l2.06.29Z"/>
      <path d="M191.32,137.28c.58-4.07-3.21-4.44-6.33-4.17-2.66.23-3.87,1.41-3.6,4.17l-2.18.28c-2.6-10.11,16.69-9.59,14.18.01l-2.06-.29Z"/>
      <polygon points="193.51 123.5 193.51 126.21 181.42 126.21 181.42 129.67 179.2 129.67 179.2 123.5 193.51 123.5"/>
      <polygon points="105.21 137.81 105.21 143.98 90.9 143.98 90.9 141.26 102.99 141.26 102.99 137.81 105.21 137.81"/>
      <path d="M141.9,74.95c3.75-.1,7.37,2.94,7.71,6.71v103.66c-1.75,8.59-13.97,8.25-15.07-.48v-103.41c.53-3.54,3.78-6.38,7.35-6.47Z"/>
    </g>
  </g>
</svg>