<?xml version="1.0" encoding="UTF-8"?>
<svg id="Layer_1" data-name="Layer 1" xmlns="http://www.w3.org/2000/svg" viewBox="0 0 66.92 120.84">
  <defs>
    <style>
      .cls-1 {
        fill: #231f20;
      }
    </style>
  </defs>
  <path class="cls-1" d="M66.76,74.28c-.76.39-1.17,1.49-2.07,1.53-1.09.06.05-1.17.17-1.41.56-1.17-.18-2.26.06-2.9.19-.52.95-.62,1.21-1.19.24-.5-.17-1.09.1-1.59l-.33-.14c-.25,1.07.44,1.25-.54,2.1-.59.52-1.26.21-1.91-.17-.42-.25-1.32-1.73-1.23-2.2l.96.16-.95-.47.06-.39c-.72,1.19-2.16-.93-2.21-1.70-.12-1.76,2.69-1.04,3.67-.95l.17-.5-3.06.05c-.52.2-.95,1.05-1.44,1.13-.58.1-1.38-.56-2.55-.19-.43.13-1.19.86-1.56.36-.41-.53,1.73-2.26,2.15-2.06l.74.59-.12-.62-.86-.4.95-1.33c1.18.41,2.2.41,2.63-.95,0,0,.24.35.48.23.24-.11-.05-.68-.05-.68-.7-.15-1.49,2.69-3.12.79-.19-.23.33-.65.04-.85-.42.39-.16.96-.35,1.37-.18.40-.81,1.21-1.11,1.57-.81.94-1.89,1.74-2.69,2.69-.14-1.39-.8-3.49-.41-4.82.62-2.16,3.74-3.79,5.09-5.6,2.44-1.88,3.88.75,6.30.97,0,0,.64-.15-.25-.72-.88-.57-2.09-1.22-3.17-1.79-.81-.42-1.67-.35-2.16-1.21-.45-.8-1.48-4.04-1.36-4.92.31-2.25,2.39-1.8,2.85-3.34.45-1.53-.7-.84-.7-.84-.91,1.33-2.21,1.22-2.78,2.89-.75,2.18,1.39,6.78.95,7.75-.39.83-1.59,1.43-2.29,2.07-1.79,1.62-3.65,2.93-4.03,5.48-.18,1.2.4,3.22-.06,4.27-.48,1.08-1.82,1.93-2.47.53-.23-.51-1.2-4.56-1.2-5.06,0-.6.23-1.14.19-1.79-.08-1.74-2.10-5.35-.76-6.88.4-.46,2.28-1.06,3.11-1.76.71-.61,1.23-1.22,1.6-2.09l-2.13,1.91c-.48.32-.97.53-1.55.36.15-1.96.35-2.44.02-4.32-.05-.28-.17-1-.56-1.96-.40-.96-1.62-.94-2.16-.90.13.36.64.36.92.6,1.06.9,1.44,4.27,1.10,5.59-.17.72-1.16,2.85-2,2.34-.53-.32-2.53-2.86-3.01-3.53-.94-1.29-2.15-2.73-1.16-4.33.84-1.37,1.79-1.38,1.90-3.57.07-1.34-.06-2.36-1.16-3.91-1.09-1.55-.86-.15-.86-.15.55.66.67,1.51.61,2.06-.28,2.28,1.47,2.21-.05,3.68-.26.26-2.35,1.77-2.69,1.95-1.45.78-1.86-.47-2.69-1.13-1.19-.93-1.82-1.50-2.98-2.17-1.81-1.06.05-3.24-.69-3.05-.74.18-1.04,2.48-1.04,2.48-1.09-1.30-2.08-2.71-3-4.14-.54-.85-.97-1.88-1.49-2.64-.10-.15-.33-.52-.49-.23.37,1.50,1.01,2.26,1.57,3.52.28.63.46,1.59,1.23,1.97-.11-.03-.66-.13-1.83.66-1.31.89,1.08-1.01,2.85.74,1.09.57,2.79,1.53,3.65,2.11.83.56,1.85,1.60,2.69,2.19.75.52,2.01.70,2.56,1.19.47.41.97,1.69,1.39,2.29,2.86,4.16,5.43,6.51,5.61,11.99,0,.22.15.38-.09.58-.74-.87-1.78-1.18-2.61-1.89-.81-.72-1.53-1.87-2.27-2.64-1.36-1.41-3.32-2.81-4.15-4.71-.24-.55.17-1.16-.50-1.49l.19.91c-.10.25-1.59.75-1.89.63-.43-.16-.85-1.05-1.43-.78.53.29,1.08.94,1.63,1.13.38.13,1-.24,1.35-.17.79.16,1.26,1.46,1.76,2.03-.23.56-.65.32-1.12.37l.18.38-.61.51c.54.18,1.02-.62,1.40-.68.70-.11,2.73,2.09,3.14,2.76.14.24.34.19.07.45-.67.64-1.82-.62-2.41-.93-1.14-.60-2.59.07-3.43-.26-.71-.28-1.31-1.57-2.44-1.95-.12-.04-1.75-.17-2.04-.18-.13,0-.62-.19-.53.17.05.17,2.47.42,2.89.40.36.16,1.29,1.09,1.45,1.43.25.50-.65,2.45-1.44,2.53l.13.41c.31-.33.79-.49,1.07-.86.40-.53.18-1.19.74-1.50.24-.14,2.79-.09,3.14.03.63.23,1.57.97,1.58,1.64l-.77-.12c.39.25.60.29.43.74.21-.28,1.41-.46,1.69-.40.47.09.81.54,1.25.74.43.18,1.09.23,1.45.46.21.14,2.07,2.69,2.24,3.01.58,1.05,1.20,6.23,1.53,7.77.38,1.78,1.16,3.02.99,4.98-.08,1.03-.49,1.99-.65,2.99-.48,2.99,2.16,6.37.56,8.87-.85,1.33-.61-1.36-1.20-3.74-.98-3.93-4.59-6.23-6.32-9.78-.28-.58-2.76-5.37-2.79-5.66-.05-.36.24-.97.25-1.53.02-1.33-.44-2.85-.42-4.20l-.34.18c-.28-.62-.47-1.59-1.08-1.96l1.26,2.74-1.58-.49,1.52,1.19c.11.66-.06,1.34-.03,2,0,.28.28.60.25.85-.09.76-2.48.68-3.10.14-.17-.16-1.15-1.43-1.30-1.68-.34-.51-.19-1.15-.45-1.68-.48-.97-1.65-1.53-1.82-2.65l-.06.70.67,1.15-1.49-.30c-.05.47-.30.44-.65.59.43.37.69-.21,1.15-.23.38,0,1.19.36,1.49.61.79.62.34,1.11.72,1.76.12.21,1.77,2.35,1.90,2.44.68.50,1.76-.07,2.81,1.06.35.39,1.64,3.65,1.44,3.90-1.55.20-2.67-.81-3.52-1.99.08,1.36,1.28,1.65,2.25,2.26-.35.56-.94.35-1.42.48,1.55.68,1.80-.96,3.38.51.62.58,2.72,4.18,2.96,5.04.08.31.14.64.17.97-.24.56-1.32-.40-1.57-.62-1.11-1-1.87-3-3.14-3.75-.98-.59-2.71-.15-3.75-.75-.96-1.12-2.08-3.76-3.17-4.63-.46-.36-1.10-.27-1.57-.51-.68-.35-2.53-1.49-3.02-1.99-.36-.36-.45-.86-.82-1.19-.15.34.47,1.01.15,1.30-.35.30-1.07-.53-1.31.03.56.27,1.19.19,1.76.46,1.14.51,2.08,1.23,3.10,1.87.44.28,1.20.32,1.55.58.59.41,2.62,3.40,2.09,4.13-.14.19-1.52,1.59-1.73,1.75-1.87,1.32-3.42,0-4.80-1.34l.74,1.08-.51.39c.75.43,1.57-.07,2.25.76l-1.91,2.07,2.32-1.55c1.83,0,3.01-1.85,4.37-2.37.36-.14,3.72.31,4.10.52.57.31,2.66,3.43,2.80,4.12.05.24.11.40-.10.58l-1.18-1.06-.06.39-1-.71,1.42,1.33-.39,1.13.33.13c.17-1.23.65-.67,1.27-.71,1.24-.07,2.45-.36,3.21.97,1.35,2.41,2.28,3.10.86,5.37-.27.43-1.08.68-1.67.48-1-.34-1.31-.14-1.54-1.20-.32-1.52,1.03-1.51,1.02-1.73l-.56.03c-.14-.11.21-1.12-.28-1.27.20.15-.33,2.02-.70,1.42-.26-1.30-3.24-3.28-3.97-4.36-.31-.47-.72-.60-1.04-.96-.44-.51-.56-2-1.44-1.21.99.17.95,1.21,1.34,1.73.91,1.20,2.13,1.88,2.58,3.59.07.27.60,1.52.34,1.59-.62-.61-2.95-2.46-3.64-2.81-.70-.34-1.07.74-1.54.60-.37-.45-1.13-.40-1.46-.62-.52-.35-.85-1.36-1.49-1.68-.17.18.17.47.29.63.86,1.21,1.67,1.30.44,2.88l.51.61c.20-.21.02-.58.16-.91.17-.41.56-.94,1.08-.74.97.35.43.77,1.63-.18.44,0,2.89,1.38,3.12,1.82,1.99,3.57,3.33,2.13,3.23,4.96v.06c-.93,10.36-4.28,13.96-12.34,13.96-9.81,0-12.63-5.35-12.63-21.69v-46.68c0-16.19,2.82-21.55,12.63-21.55,9.12,0,12.20,4.62,12.60,18.27h17.83C60.17,11.38,51.75,0,30.46,0S0,12.49,0,37.01v46.68c0,24.67,8.18,37.15,30.46,37.15,19.71,0,28.39-9.74,30.14-29.05.03-.16.05-.33.06-.51.08-2.14,1-10.19,1.67-11.83.50-1.20,1.44-1.01,1.73-1.41.19-.27-.06-.62.03-.89.22-.65,1.21-.96,1.73-1.40.15-.12,1.58-1.50.95-1.48ZM51.89,77.86c.27-1.73.81-3.12,1.08-4.76.17-.96-.28-1.81-.22-2.35.06-.49.47-.66.54-.96.05-.21-.09-.67-.04-1,.19-1.25.73-1.73,1.93-2.04.51-.14,1.03.32,1.39.09l.26-.33-.62-.02c.31-1.17,2.86-.92,3.50-.51.43.28.26.78.61,1.08-.26.19-.59-.16-.78.32-.18.47-.17,2.08-.36,2.81-.51,1.96-1,1.81-1.91,3.18-.29.45-.51,4.01-.47,4.72.06,1.20.42,2.75,1.06,3.78.05.60-1.55-.27-1.76-.40-1.23-.76-1.88-1.76-2.94-2.66-.05,1.06.97,1.42,1.38,2.28.13.66-.74.57-.71.68,2.04.42,3.54.67,4.60,2.69,1.77,3.34-1.15,5.90-2.97,4.34-1.88-1.62-2.24-3.27-2.44-5.30-.18-1.94-1.43-3.71-1.13-5.66ZM63.56,74.56l.16-.52-.64.28c.66,1.25.40,1.31-.17,2.42-.09.18-.04.47-.14.63-.41.73-2.64,1.19-2.10,2.12l-1.70,1.89c-.75-.35-1.58-5.21-1.40-6.16.26-1.30,1.02-1.43,1.57-2.38.86-1.51.51-3.82,1.51-5.33.42.39,1.35.66,1.22,1.30l-.72-.37c.82.53,1.30,1.60,1.96,2.12.50.39,1.08.34,1.47.99.06.08.22,1.86.18,1.98-.13.53-.62,1.46-1.20,1.01Z"/>
</svg>
